<svg xmlns="http://www.w3.org/2000/svg" xmlns:xlink="http://www.w3.org/1999/xlink" xmlns:lucid="lucid" width="1507" height="1623"><g transform="translate(445.5 821.5)" lucid:page-tab-id="0_0"><path d="M-500-1000h2000v2000H-500z" fill="#fff"/><path d="M-240-240H840V800H-240z" stroke="#e7157b" stroke-width="3" fill="#fff" fill-opacity="0"/><path d="M-229.87-229.87l.18-.22h35.4l.4.4v35.4l-.4.4h-35.4l-.4-.4v-35.4zm34.66 1.12l-.16-.1H-212c-15.1 0-16.68 0-16.8.06-.06.12-.06 1.72-.06 16.8v16.64l.1.15.16.1h33.2l.3-.3v-33.2zm-30.48 10.06l.2-.2h11.56l.22.2.22.22v11.58l-.4.4h-11.6l-.2-.22-.2-.18v-11.6zm18.64 8.33c.65-.18 2.02-.18 2.6 0l.65.18c.12 0 .37.12.56.2.14.1.32.17.4.17.06 0 .14.04.17.1.04.04.22.2.36.26.18.07.3.18.3.22l.2.14c.1.03.22.1.22.17.04.08.07.1.07.1.06 0 .57.52.57.56 0 .03.07.14.18.25.1.14.22.25.22.3 0 .03.07.17.14.24.12.1.2.25.2.3 0 .03.07.25.17.46.1.18.22.44.22.5 0 .08.06.33.14.6.2.64.2 1.98 0 2.63-.08.26-.15.5-.15.6 0 .17-.12.4-.23.5-.03.03-.1.2-.14.4-.07.14-.1.28-.15.28-.03 0-.1.1-.18.25-.07.1-.18.3-.28.4-.08.07-.15.18-.15.22 0 0-.18.22-.4.43-.2.22-.4.4-.43.4-.04 0-.1.07-.22.15-.07.07-.3.2-.4.28l-.25.16c0 .04-.1.1-.3.14l-.4.2c-.1.1-.3.17-.5.17-.07 0-.32.07-.54.18-.68.2-2.02.2-2.67 0-.26-.1-.5-.18-.58-.18-.07 0-.3-.08-.5-.2-.23-.1-.4-.17-.48-.17-.04 0-.14-.07-.25-.18-.1-.1-.22-.18-.26-.18-.08 0-.2-.07-.3-.18l-.25-.18c-.07 0-.58-.5-.58-.58 0-.03-.03-.07-.1-.07-.08-.04-.15-.15-.2-.25-.06-.08-.1-.2-.13-.2-.04.02-.1-.1-.22-.27-.07-.14-.18-.32-.25-.36-.04-.03-.1-.14-.1-.18 0-.07-.08-.25-.16-.43-.1-.14-.17-.4-.2-.54 0-.12-.1-.4-.18-.66-.18-.58-.18-1.9 0-2.54.1-.25.18-.58.2-.72.05-.18.12-.33.16-.36l.14-.33c.04-.15.15-.33.22-.44.1-.1.18-.22.18-.25 0-.07.47-.68.8-1 .3-.3.9-.8 1-.8.05 0 .16-.08.23-.15.1-.07.3-.18.43-.22.15-.03.3-.1.33-.18.04-.03.22-.07.37-.1l.7-.22zm-7.78-7.16l-.1-.15h-4.8c-4.25 0-4.76.04-4.87.1-.06.08-.06.6-.06 4.86v4.77l.1.15c.15.1.2.1 4.85.1h4.73l.15-.14.1-.14v-4.7c0-4.7 0-4.75-.1-4.85zm10.78-9.16c.22-.17.7-.3.7-.13 0 .03.06.07.17.14.1.05.18.16.2.23 0 .1.12.25.2.4.07.1.14.25.14.3 0 .06.07.17.14.28.1.12.2.3.23.44.04.1.1.25.18.33.05.07.12.2.16.32.03.1.1.28.18.4.1.1.18.24.18.35.04.07.1.22.22.36.07.12.14.27.14.34 0 .03.07.18.15.3.07.1.14.28.18.4.04.1.15.24.2.3.06.08.13.23.17.34.03.1.1.3.18.4.07.1.14.28.18.36.04.07.1.25.18.36.12.14.2.25.2.32 0 .04.03.2.1.3.1.1.18.28.22.4.03.14.1.28.18.35.07.04.14.18.14.3.04.1.15.28.22.4.07.1.14.28.18.4.04.1.14.28.22.35.07.1.1.25.1.3 0 .06.08.17.15.28.08.1.2.3.23.43.03.1.1.26.18.33.26.3.33.9.15 1.23-.03 0-.03.03-.03.06-.15.18-.58.18-6 .15h-5.43l-.16-.17c-.18-.22-.18-.87 0-1.1.07-.06.18-.24.22-.35.03-.1.1-.3.18-.4.07-.07.14-.22.14-.33.04-.1.15-.28.22-.4.1-.14.18-.32.18-.35 0-.08.04-.2.15-.26.07-.1.14-.3.18-.4l.15-.32c.07-.07.15-.22.18-.33.04-.15.15-.33.22-.4.07-.1.14-.26.14-.33.03-.1.1-.3.2-.44.08-.14.16-.28.16-.32 0-.06.07-.17.14-.28.07-.07.18-.25.22-.36.03-.15.1-.3.14-.33.07-.07.15-.22.18-.36l.18-.36c.08-.1.15-.24.2-.35-.02-.08.1-.26.17-.4.1-.15.17-.3.17-.36 0-.05.07-.2.14-.27.08-.1.2-.28.2-.4.03-.1.1-.25.17-.32.04-.03.15-.2.18-.3.04-.12.1-.3.2-.4.06-.08.13-.23.13-.34l.22-.43c.1-.1.18-.26.18-.33 0-.03.07-.18.18-.3zm-.36 17.56c-.44-.18-2.43-.15-2.68.03-.07.07-.3.14-.43.17-.2.04-.38.1-.48.2-.08.06-.22.13-.3.17-.14.03-.43.25-.93.76-.5.5-.7.76-.77.94-.04.07-.1.2-.2.3-.06.06-.13.28-.17.42-.03.18-.1.4-.18.5-.2.37-.14 2.8.08 2.8.03 0 .07.1.07.25.03.15.1.37.18.48.08.1.2.25.23.36.07.18.18.32.5.7.1.1.22.2.26.28.06.07.17.18.27.25.08.07.26.18.33.3l.3.17c.06.03.2.1.32.18.1.1.32.18.43.18.14.04.33.1.43.18.33.18 2.54.18 2.8 0 .1-.07.28-.14.4-.14.13-.04.35-.1.46-.2l.4-.24c.14-.07.2-.14.2-.14 0-.04.1-.07.12-.1.15-.05.94-.84.98-1 .03-.06.07-.1.1-.1.04 0 .12-.1.15-.2l.24-.45c.08-.1.15-.28.2-.42.02-.1.1-.3.13-.4.22-.25.18-2.46 0-2.8-.07-.1-.14-.3-.14-.42-.04-.1-.1-.33-.2-.43-.1-.1-.17-.26-.2-.33 0-.07-.1-.22-.18-.3-.08-.1-.22-.24-.3-.35-.06-.07-.17-.22-.25-.25-.03-.08-.18-.18-.3-.26-.35-.36-.5-.43-.67-.5-.08-.08-.26-.15-.37-.22-.1-.07-.32-.15-.43-.18l-.25-.07c0-.04-.1-.08-.18-.1zm1.05-15.38c-.1-.14-.44-.03-.55.22-.07.07-.14.25-.18.36-.07.1-.14.25-.18.33-.03.1-.1.24-.18.35-.03.1-.1.25-.14.32-.08.08-.15.22-.18.33-.04.1-.1.25-.2.36-.02.08-.1.22-.17.36-.03.1-.14.3-.18.37-.04.1-.15.28-.2.35-.02.1-.13.3-.17.36l-.14.34c-.1.1-.16.25-.2.32-.03.07-.1.25-.18.36-.03.1-.1.25-.14.33-.07.07-.15.25-.22.36-.03.12-.1.3-.18.4-.03.08-.1.26-.18.37-.03.1-.1.25-.14.33-.08.07-.15.2-.2.32-.17.4-.3.65-.38.8-.15.25-.3.43-.22.54.07.25.98.22 4.3.22h3.98l.15-.1c.13-.16.06-.45-.12-.66-.07-.04-.14-.22-.18-.33-.04-.12-.1-.3-.22-.4-.07-.08-.1-.22-.1-.26 0-.07-.08-.22-.15-.33-.1-.13-.22-.3-.25-.46-.04-.14-.1-.25-.15-.3-.03-.02-.1-.17-.18-.3-.03-.16-.1-.34-.18-.4-.07-.08-.14-.23-.18-.34-.05-.14-.12-.32-.2-.4-.06-.1-.14-.2-.14-.28 0-.04-.07-.22-.14-.33-.07-.12-.18-.33-.22-.44-.07-.15-.14-.3-.18-.33-.03-.03-.1-.18-.14-.32-.08-.14-.15-.28-.22-.36-.04-.07-.1-.2-.15-.36-.02-.1-.13-.3-.2-.4-.08-.07-.15-.18-.15-.25s-.07-.22-.14-.32c-.06-.1-.17-.32-.2-.43-.05-.14-.12-.25-.15-.3z" stroke="#fff" stroke-opacity="0" fill="#fff"/><path d="M-240-184v-56h56v56h-56zm46.14-45.7l-.44-.4h-35.4l-.16.24-.23.16v35.4l.4.44h35.45l.4-.4v-35.44zm-34.88.96c.05-.12 1.68-.12 16.74-.12h16.7l.1.12.1.1v33.27l-.27.28h-33.26l-.1-.1-.13-.1V-212c0-15.06 0-16.7.12-16.74zm15.06 10.08l-.22-.23h-11.6l-.16.24-.23.16v11.6l.24.22.16.22h11.6l.44-.4v-11.64zm9.24 8.28c-.56-.16-1.96-.16-2.58.06-.22.06-.56.1-.67.17-.16.05-.32.1-.38.1-.06.07-.17.12-.34.18-.1.05-.33.17-.4.22-.1.1-.2.17-.27.17-.04 0-.66.5-1 .78-.28.34-.78.96-.78 1 0 .07-.06.18-.17.3-.05.05-.17.27-.22.38-.06.17-.1.28-.17.34 0 .06-.06.22-.1.4-.07.1-.12.44-.24.72-.16.62-.16 1.96 0 2.52.12.22.17.5.17.67.05.1.1.34.22.5.1.17.16.4.16.45 0 .06.06.12.12.17.05.06.16.23.22.4.1.16.22.27.22.27.06 0 .12.12.17.17 0 .1.12.22.18.22l.1.1c0 .06.52.57.57.57 0 0 .1.1.28.2.1.07.23.18.28.18 0 0 .12.06.24.17.1.1.22.17.28.17.05 0 .28.1.44.22.23.06.45.17.56.17.06 0 .34.06.56.18.62.22 2.02.22 2.64 0 .28-.12.5-.17.6-.17.18 0 .4-.1.52-.16 0-.06.22-.17.4-.22.16 0 .27-.12.27-.12 0-.05.12-.1.23-.16l.4-.28c.1-.12.22-.17.22-.17.05 0 .22-.18.45-.4.22-.23.4-.4.4-.45 0 0 .04-.1.16-.23.05-.05.22-.28.28-.4.05-.1.1-.2.16-.2 0 0 .12-.12.12-.3.05-.16.16-.38.22-.38.06-.12.17-.34.17-.5 0-.12.06-.34.18-.62.22-.62.22-2.02 0-2.64-.12-.22-.17-.5-.17-.56 0-.1-.1-.33-.16-.56-.1-.16-.22-.4-.22-.44 0-.06-.06-.17-.17-.28l-.17-.23c0-.04-.1-.16-.17-.27-.1-.17-.2-.28-.2-.28 0-.05-.52-.56-.57-.56 0 0-.06-.06-.06-.12-.05-.06-.17-.1-.28-.17-.06-.04-.18-.1-.18-.16 0 0-.1-.1-.28-.22-.16-.06-.33-.17-.4-.22-.04-.06-.1-.12-.16-.12-.05 0-.28-.05-.44-.16-.17-.12-.4-.17-.5-.23-.18 0-.46-.06-.68-.18zm-20.1-7.16c.05-.12.56-.12 4.87-.12h4.76l.1.12c.1.1.1.16.1 4.87v4.7l-.1.17-.17.1h-4.7c-4.7 0-4.76 0-4.87-.1l-.12-.1v-4.77c0-4.3 0-4.82.12-4.87zm21.22-9.3c0-.06-.1-.06-.22-.06-.28 0-.68.34-.68.5 0 .06-.05.23-.16.34-.12.17-.17.34-.23.45 0 .05-.06.22-.12.33-.1.05-.17.22-.22.4-.06.1-.12.2-.17.33-.07.05-.12.16-.18.28 0 .1-.1.28-.17.4-.1.1-.17.2-.17.27 0 .06-.05.23-.16.34-.12.17-.17.34-.23.45 0 .05-.06.22-.12.33-.1.05-.17.22-.22.4l-.17.27c-.07.1-.12.22-.18.34 0 .1-.1.28-.17.4-.1.1-.17.2-.17.27 0 .06-.05.23-.16.34-.12.17-.17.34-.23.45 0 .05-.06.22-.12.33-.1.05-.17.22-.22.4-.06.1-.12.2-.17.33-.07.05-.12.16-.18.28 0 .1-.1.28-.17.4-.1.1-.17.2-.17.27 0 .06-.05.23-.16.34-.12.17-.17.34-.23.45 0 .05-.06.22-.12.33-.1.05-.17.22-.22.4-.06.1-.12.27-.17.33-.24.22-.24.9-.07 1.12l.17.16h5.43c5.43 0 5.88 0 6-.16 0-.06.05-.06.05-.12.17-.28.1-.9-.17-1.17-.04-.12-.1-.24-.16-.35-.05-.17-.1-.33-.22-.45-.06-.1-.1-.22-.1-.28 0-.05-.07-.16-.12-.28-.12-.1-.17-.28-.23-.4-.05-.1-.1-.27-.22-.38-.06-.1-.1-.28-.17-.4 0-.1-.1-.22-.17-.27-.04-.12-.1-.24-.16-.35-.05-.17-.1-.33-.22-.45-.06-.1-.1-.22-.1-.28 0-.05-.07-.16-.18-.33-.06-.12-.17-.3-.17-.35-.05-.1-.1-.28-.17-.4-.1-.1-.16-.27-.22-.38 0-.1-.1-.23-.17-.28-.04-.12-.1-.24-.16-.35-.05-.17-.1-.33-.22-.45-.06-.1-.1-.22-.1-.28 0-.05-.07-.16-.18-.33-.06-.12-.17-.3-.17-.35-.05-.1-.1-.28-.17-.4-.1-.1-.16-.27-.22-.38 0-.1-.1-.23-.17-.28-.04-.12-.1-.24-.16-.35-.05-.17-.1-.33-.22-.45-.06-.1-.1-.22-.1-.28 0-.05-.07-.16-.18-.33-.06-.12-.17-.3-.17-.35-.05-.1-.1-.22-.22-.28-.1 0-.17-.05-.17-.1zm-3.36 17.64c.78-.1 2.46 0 2.46.17 0 .05.12.05.28.1.12 0 .34.07.45.18.12.05.3.17.35.17.17.1.33.16.67.56.1.05.28.16.34.22.05.06.16.17.22.28.06.1.22.22.28.34.1.1.17.22.22.28 0 .05.06.22.17.33.1.1.17.34.17.45.06.1.1.34.17.45.2.28.2 2.52 0 2.8-.07.05-.12.22-.12.4-.06.1-.12.33-.23.44-.05.1-.17.28-.22.4-.06.1-.1.2-.17.2 0 0-.06.07-.06.13-.05.16-.84.95-1 1-.06 0-.12.06-.12.06 0 .06-.1.1-.22.17-.1.05-.28.17-.4.22-.1.1-.33.17-.44.23-.17 0-.34.05-.4.1-.27.23-2.5.23-2.8 0-.1-.05-.33-.1-.44-.16-.1 0-.34-.1-.45-.17-.1-.1-.28-.17-.33-.17-.06-.05-.17-.1-.28-.22-.12-.06-.23-.22-.34-.28-.1-.06-.22-.17-.28-.22-.06-.06-.17-.23-.22-.34-.4-.34-.45-.5-.56-.67 0-.06-.12-.23-.17-.34-.1-.1-.17-.32-.17-.44-.06-.16-.06-.28-.1-.28-.24 0-.3-2.4-.07-2.8.07-.1.12-.33.18-.5.06-.17.1-.34.17-.45.1-.05.17-.22.17-.28.05-.17.28-.45.78-.95.5-.5.78-.73.95-.78.06 0 .23-.06.28-.17.1-.06.28-.1.45-.17.17-.06.4-.1.45-.17.05-.04.28-.1.4-.1zm3.02-15.34c.28-.12.34-.06.45.33l.22.38c.1.17.16.28.16.34s.06.22.12.28c.1.1.16.28.22.4.06.1.1.27.17.33.04.05.16.22.2.4 0 .16.12.27.12.33.06.05.12.16.17.28.05.16.16.33.22.44.1.17.16.28.16.34s.06.22.12.28c.1.1.16.28.22.4.06.1.1.27.17.33.04.05.16.22.2.4 0 .16.12.27.12.33.06.05.12.16.17.28.05.16.16.33.22.44.1.17.16.28.16.34s.06.22.12.28c.1.1.16.28.22.4.06.1.1.27.17.33.2.22.27.5.1.6l-.1.18h-4c-3.35 0-4.24 0-4.36-.2 0-.18.12-.35.23-.57.1-.1.22-.4.45-.8 0-.1.1-.27.16-.32 0-.05.12-.22.17-.33 0-.1.1-.28.17-.33.06-.12.1-.28.17-.4.04-.16.16-.33.2-.4 0-.04.12-.2.12-.32.06-.12.17-.28.17-.34.05-.06.16-.22.22-.34 0-.1.1-.28.16-.33 0-.05.12-.22.17-.33 0-.1.1-.28.17-.4.06-.05.1-.2.17-.33.04-.16.16-.33.2-.4 0-.04.12-.2.12-.32.06-.12.17-.28.17-.34.05-.06.16-.22.22-.34 0-.1.1-.28.16-.33 0-.05.12-.22.17-.33 0-.1.1-.28.17-.4.06-.05.1-.16.22-.2z" stroke="#fff" stroke-opacity="0" fill="#e7157b"/><use xlink:href="#a" transform="matrix(1,0,0,1,-169,-220) translate(0 21.52777777777778)"/><use xlink:href="#b" transform="matrix(1,0,0,1,-169,-220) translate(54.75260416666667 21.52777777777778)"/><path d="M-220-160H820v940H-220z" stroke="#8c4fff" stroke-width="3" fill="#fff" fill-opacity="0"/><path d="M-220-160h56v56h-56v-56z" stroke="#fff" stroke-opacity="0" fill="#8c4fff"/><path d="M-176.63-130.55l-4.12-1.77v14.68c3.57-.48 4.12-4.16 4.12-4.3v-8.6zm-5.53 12.95v-14.72l-4.23 1.77v8.68c0 .07.63 3.86 4.24 4.27zm.43-16.45c.2-.07.4-.07.55.04l5.53 2.34c.27.1.43.37.43.63v9.16c-.24 2.02-1.88 5.7-6.35 5.7-4.3 0-5.96-3.68-6.24-5.6v-9.26c0-.26.2-.52.43-.63l5.64-2.4zm7.92.92l-7.66-3.38-7.76 3.26v9.97c0 .08-.04 4 2.35 6.48 1.26 1.33 3.06 2 5.3 2 2.27 0 4.03-.67 5.37-2 2.43-2.46 2.4-6.43 2.4-6.47v-9.86zm-1.42 17.3c-1.57 1.6-3.7 2.42-6.35 2.42-2.63 0-4.75-.82-6.3-2.44-2.84-2.87-2.72-7.28-2.72-7.47v-10.42c0-.3.17-.55.44-.62l8.43-3.57c.2-.1.4-.1.55 0l8.35 3.67c.27.1.43.37.43.62v10.33c0 .2.04 4.56-2.82 7.43zm-29.4-10.23h11.2v1.4h-11.2c-3.92 0-6.75-2.84-6.98-7.03v-.5c0-3.54 1.84-5.93 5.33-7 0-.3-.04-.66-.04-.88 0-4.1 2.23-7.66 5.64-9.05 4.62-1.88 9.84-1.25 12.74 1.54 1.05 1.04 1.88 2.18 2.47 3.5.86-.62 1.96-.9 3.3-.84 2.5.1 4.42 2.4 4.8 5.6 2.1.18 3.5 1.25 4.2 3.23l-1.3.47c-.58-1.62-1.67-2.36-3.56-2.36-.36 0-.67-.24-.67-.65-.2-3.23-2-4.82-3.57-4.9-1.33-.06-2.3.3-2.9 1.1-.16.2-.4.3-.67.27-.24-.04-.48-.22-.55-.44-.6-1.55-1.42-2.83-2.55-3.94-2.5-2.43-7.14-2.94-11.25-1.25-2.86 1.17-4.75 4.2-4.75 7.72 0 .37.04.95.08 1.32.04.37-.16.7-.5.77-3.22.82-4.87 2.74-4.87 5.8v.4c.2 3.5 2.4 5.74 5.58 5.74z" stroke="#fff" stroke-opacity="0" fill="#fff"/><use xlink:href="#c" transform="matrix(1,0,0,1,-149,-140) translate(0 23.680555555555557)"/><path d="M-240-820h508.13v540H-240z" stroke="#e7157b" stroke-width="3" fill="#fff" fill-opacity="0"/><path d="M-229.87-809.87l.18-.22h35.4l.4.4v35.4l-.4.4h-35.4l-.4-.4v-35.4zm34.66 1.12l-.16-.1H-212c-15.1 0-16.68 0-16.8.06-.06.12-.06 1.7-.06 16.8v16.64l.1.15.16.1h33.2l.3-.3v-33.2zm-30.48 10.06l.2-.2h11.56l.22.2.22.22v11.58l-.4.4h-11.6l-.2-.22-.2-.18v-11.6zm18.64 8.33c.65-.18 2.02-.18 2.6 0l.65.18c.12 0 .37.12.56.2.14.1.32.17.4.17.06 0 .14.04.17.1.04.05.22.2.36.26.18.08.3.18.3.22l.2.14c.1.03.22.1.22.18l.07.1c.06 0 .57.5.57.55 0 .03.07.14.18.25.1.14.22.25.22.3 0 .02.07.17.14.24.12.1.2.25.2.3 0 .03.07.25.17.46.1.18.22.44.22.5 0 .08.06.33.14.6.2.64.2 1.98 0 2.63-.08.26-.15.5-.15.6 0 .17-.12.38-.23.5-.03.03-.1.2-.14.4-.07.14-.1.28-.15.28-.03 0-.1.1-.18.25-.07.1-.18.3-.28.4-.08.07-.15.18-.15.22 0 0-.18.22-.4.43-.2.22-.4.4-.43.4-.04 0-.1.07-.22.14-.07.08-.3.22-.4.3l-.25.14c0 .04-.1.1-.3.14-.17.08-.3.15-.4.18-.1.1-.3.2-.5.2-.07 0-.32.06-.54.17-.68.2-2.02.2-2.67 0-.26-.1-.5-.18-.58-.18-.07 0-.3-.08-.5-.2-.23-.1-.4-.17-.48-.17-.04 0-.14-.07-.25-.18-.1-.1-.22-.18-.26-.18-.08 0-.2-.07-.3-.18l-.25-.18c-.07 0-.58-.5-.58-.58 0-.03-.03-.07-.1-.07-.08-.04-.15-.15-.2-.25-.06-.08-.1-.2-.13-.2-.04 0-.1-.1-.22-.27-.07-.14-.18-.32-.25-.36-.04-.03-.1-.14-.1-.18 0-.07-.08-.25-.16-.43-.1-.14-.17-.4-.2-.54 0-.12-.1-.4-.18-.67-.18-.57-.18-1.88 0-2.53.1-.25.18-.58.2-.72.05-.18.12-.33.16-.36l.14-.33c.04-.15.15-.33.22-.44.1-.1.18-.22.18-.25 0-.07.47-.68.8-1 .3-.3.9-.8 1-.8.05 0 .16-.08.23-.15.1-.07.3-.18.43-.22.15-.03.3-.1.33-.18.04-.03.22-.07.37-.1l.7-.22zm-7.78-7.16l-.1-.15h-4.8c-4.25 0-4.76.04-4.87.1-.06.08-.06.6-.06 4.86v4.77l.1.15c.15.1.2.1 4.85.1h4.73l.15-.14.1-.14v-4.7c0-4.7 0-4.75-.1-4.86zm10.78-9.16c.22-.17.7-.3.7-.13 0 .03.06.07.17.14.1.05.18.16.2.23 0 .1.12.25.2.4.07.1.14.25.14.3 0 .06.07.17.14.28.1.12.2.3.23.44.04.1.1.25.18.33.05.07.12.2.16.32.03.1.1.28.18.4.1.1.18.24.18.35.04.07.1.22.22.36.07.12.14.27.14.34 0 .04.07.18.15.3.07.1.14.28.18.4.04.1.15.24.2.3.06.08.13.23.17.34.03.1.1.3.18.4.07.1.14.3.18.36.04.07.1.25.18.36.12.14.2.25.2.32 0 .04.03.18.1.3.1.1.18.28.22.4.03.14.1.28.18.35.07.04.14.18.14.3.04.1.15.28.22.4.07.1.14.28.18.4.04.1.14.28.22.35.07.1.1.25.1.3 0 .06.08.17.15.28.08.1.2.3.23.43.03.1.1.26.18.33.26.3.33.9.15 1.23-.03 0-.03.02-.03.06-.15.18-.58.18-6 .15h-5.43l-.16-.18c-.18-.2-.18-.86 0-1.08.07-.07.18-.25.22-.36.03-.1.1-.3.18-.4.07-.07.14-.22.14-.33.04-.1.15-.28.22-.4.1-.14.18-.32.18-.36 0-.08.04-.2.15-.26.07-.1.14-.3.18-.4l.15-.32c.07-.07.15-.22.18-.33.04-.15.15-.33.22-.4.07-.1.14-.26.14-.33.03-.1.1-.3.2-.44.08-.14.16-.28.16-.32 0-.06.07-.17.14-.28.07-.07.18-.25.22-.36.03-.15.1-.3.14-.33.07-.07.15-.22.18-.36l.18-.36c.08-.1.15-.24.2-.35-.02-.07.1-.26.17-.4.1-.14.17-.3.17-.36 0-.05.07-.2.14-.27.08-.1.2-.28.2-.4.03-.1.1-.25.17-.32.04-.02.15-.2.18-.3.04-.12.1-.3.2-.4.06-.1.13-.23.13-.34l.22-.43c.1-.1.18-.26.18-.33 0-.03.07-.18.18-.3zm-.36 17.56c-.44-.18-2.43-.15-2.68.03-.07.07-.3.14-.43.18-.2.03-.38.1-.48.18-.08.07-.22.14-.3.18-.14.03-.43.25-.93.76-.5.5-.7.76-.77.94-.04.07-.1.2-.2.3-.06.06-.13.28-.17.42-.03.18-.1.4-.18.5-.2.37-.14 2.8.08 2.8.03 0 .07.1.07.25.03.15.1.37.18.48.08.1.2.25.23.36.07.18.18.32.5.68.1.1.22.22.26.3.06.07.17.17.27.25.08.07.26.18.33.3l.3.17c.06.03.2.1.32.18.1.1.32.18.43.18.14.04.33.1.43.18.33.18 2.54.18 2.8 0 .1-.07.28-.14.4-.14.13-.04.35-.1.46-.2l.4-.24c.14-.07.2-.14.2-.14 0-.04.1-.08.12-.1.15-.05.94-.84.98-1 .03-.06.07-.1.1-.1.04 0 .12-.1.15-.2l.24-.45c.08-.1.15-.28.2-.42.02-.1.1-.3.13-.4.22-.25.18-2.46 0-2.8-.07-.1-.14-.3-.14-.42-.04-.1-.1-.33-.2-.43-.1-.1-.17-.26-.2-.33 0-.07-.1-.22-.18-.3-.08-.1-.22-.24-.3-.35-.06-.07-.17-.22-.25-.25-.03-.08-.18-.18-.3-.26-.35-.36-.5-.43-.67-.5-.08-.08-.26-.15-.37-.22-.1-.07-.32-.14-.43-.18l-.25-.07c0-.04-.1-.08-.18-.1zm1.05-15.38c-.1-.14-.44-.03-.55.22-.07.07-.14.25-.18.36-.07.1-.14.26-.18.33-.03.1-.1.24-.18.35-.03.1-.1.25-.14.33-.08.07-.15.2-.18.32-.04.1-.1.25-.2.36-.02.08-.1.22-.17.36-.03.1-.14.3-.18.37-.04.1-.15.27-.2.35-.02.1-.13.3-.17.36l-.14.33c-.1.1-.16.26-.2.33-.03.07-.1.25-.18.36-.03.1-.1.25-.14.33-.07.07-.15.25-.22.36-.03.12-.1.3-.18.4-.03.08-.1.26-.18.37-.03.1-.1.25-.14.33-.08.07-.15.2-.2.32-.17.4-.3.65-.38.8-.15.25-.3.43-.22.54.07.25.98.22 4.3.22h3.98l.15-.1c.13-.16.06-.45-.12-.66-.07-.04-.14-.22-.18-.33-.04-.12-.1-.3-.22-.4-.07-.08-.1-.22-.1-.26 0-.07-.08-.22-.15-.33-.1-.13-.22-.3-.25-.46-.04-.14-.1-.25-.15-.3-.03-.02-.1-.17-.18-.3-.03-.16-.1-.34-.18-.4-.07-.08-.14-.23-.18-.34-.05-.14-.12-.32-.2-.4-.06-.1-.14-.2-.14-.28 0-.04-.07-.22-.14-.33-.07-.12-.18-.33-.22-.44-.07-.15-.14-.3-.18-.33-.03-.03-.1-.18-.14-.32-.08-.14-.15-.28-.22-.36-.04-.07-.1-.2-.15-.36-.02-.1-.13-.3-.2-.4-.08-.07-.15-.17-.15-.25 0-.07-.07-.2-.14-.32-.06-.1-.17-.32-.2-.43-.05-.14-.12-.25-.15-.3z" stroke="#fff" stroke-opacity="0" fill="#fff"/><path d="M-240-764v-56h56v56h-56zm46.14-45.7l-.44-.4h-35.4l-.16.24-.23.16v35.4l.4.44h35.45l.4-.4v-35.44zm-34.88.96c.05-.12 1.68-.12 16.74-.12h16.7l.1.12.1.1v33.27l-.27.28h-33.26l-.1-.1-.13-.1V-792c0-15.06 0-16.7.12-16.74zm15.06 10.08l-.22-.23h-11.6l-.16.24-.23.16v11.6l.24.22.16.22h11.6l.44-.4v-11.64zm9.24 8.28c-.56-.16-1.96-.16-2.58.06-.22.06-.56.1-.67.17-.16.05-.32.1-.38.1-.06.07-.17.12-.34.18-.1.05-.33.17-.4.22-.1.1-.2.17-.27.17-.04 0-.66.5-1 .78-.28.34-.78.96-.78 1 0 .07-.06.18-.17.3-.05.05-.17.27-.22.38-.06.17-.1.28-.17.34 0 .06-.06.22-.1.4-.07.1-.12.44-.24.72-.16.62-.16 1.96 0 2.52.12.22.17.5.17.67.05.1.1.34.22.5.1.17.16.4.16.45 0 .06.06.12.12.17.05.06.16.23.22.4.1.16.22.27.22.27.06 0 .12.12.17.17 0 .1.12.22.18.22l.1.1c0 .06.52.57.57.57 0 0 .1.1.28.2.1.07.23.18.28.18 0 0 .12.06.24.17.1.1.22.17.28.17.05 0 .28.1.44.22.23.06.45.17.56.17.06 0 .34.06.56.18.62.22 2.02.22 2.64 0 .28-.12.5-.17.6-.17.18 0 .4-.1.52-.16 0-.06.22-.17.4-.22.16 0 .27-.12.27-.12 0-.05.12-.1.23-.16l.4-.28c.1-.12.22-.17.22-.17.05 0 .22-.18.45-.4.22-.23.4-.4.4-.45 0 0 .04-.1.16-.23.05-.05.22-.28.28-.4.05-.1.1-.2.16-.2 0 0 .12-.12.12-.3.05-.16.16-.38.22-.38.06-.12.17-.34.17-.5 0-.12.06-.34.18-.62.22-.62.22-2.02 0-2.64-.12-.22-.17-.5-.17-.56 0-.1-.1-.33-.16-.56-.1-.16-.22-.4-.22-.44 0-.06-.06-.17-.17-.28l-.17-.23c0-.04-.1-.16-.17-.27-.1-.17-.2-.28-.2-.28 0-.05-.52-.56-.57-.56 0 0-.06-.06-.06-.12-.05-.06-.17-.1-.28-.17-.06-.04-.18-.1-.18-.16 0 0-.1-.1-.28-.22-.16-.06-.33-.17-.4-.22-.04-.06-.1-.12-.16-.12-.05 0-.28-.05-.44-.16-.17-.12-.4-.17-.5-.23-.18 0-.46-.06-.68-.18zm-20.1-7.16c.05-.12.56-.12 4.87-.12h4.76l.1.12c.1.1.1.16.1 4.87v4.7l-.1.17-.17.1h-4.7c-4.7 0-4.76 0-4.87-.1l-.12-.1v-4.77c0-4.3 0-4.82.12-4.87zm21.22-9.3c0-.06-.1-.06-.22-.06-.28 0-.68.34-.68.5 0 .06-.05.23-.16.34-.12.17-.17.34-.23.45 0 .05-.06.22-.12.33-.1.05-.17.22-.22.4-.06.1-.12.2-.17.33-.07.05-.12.16-.18.28 0 .1-.1.28-.17.4-.1.1-.17.2-.17.27 0 .06-.05.23-.16.34-.12.17-.17.34-.23.45 0 .05-.06.22-.12.33-.1.05-.17.22-.22.4l-.17.27c-.07.1-.12.22-.18.34 0 .1-.1.28-.17.4-.1.1-.17.2-.17.27 0 .06-.05.23-.16.34-.12.17-.17.34-.23.45 0 .05-.06.22-.12.33-.1.05-.17.22-.22.4-.06.1-.12.2-.17.33-.07.05-.12.16-.18.28 0 .1-.1.28-.17.4-.1.1-.17.2-.17.27 0 .06-.05.23-.16.34-.12.17-.17.34-.23.45 0 .05-.06.22-.12.33-.1.05-.17.22-.22.4-.06.1-.12.27-.17.33-.24.22-.24.9-.07 1.12l.17.16h5.43c5.43 0 5.88 0 6-.16 0-.06.05-.06.05-.12.17-.28.1-.9-.17-1.17-.04-.12-.1-.24-.16-.35-.05-.17-.1-.33-.22-.45-.06-.1-.1-.22-.1-.28 0-.05-.07-.16-.12-.28-.12-.1-.17-.28-.23-.4-.05-.1-.1-.27-.22-.38-.06-.1-.1-.28-.17-.4 0-.1-.1-.22-.17-.27-.04-.12-.1-.24-.16-.35-.05-.17-.1-.33-.22-.45-.06-.1-.1-.22-.1-.28 0-.05-.07-.16-.18-.33-.06-.12-.17-.3-.17-.35-.05-.1-.1-.28-.17-.4-.1-.1-.16-.27-.22-.38 0-.1-.1-.23-.17-.28-.04-.12-.1-.24-.16-.35-.05-.17-.1-.33-.22-.45-.06-.1-.1-.22-.1-.28 0-.05-.07-.16-.18-.33-.06-.12-.17-.3-.17-.35-.05-.1-.1-.28-.17-.4-.1-.1-.16-.27-.22-.38 0-.1-.1-.23-.17-.28-.04-.12-.1-.24-.16-.35-.05-.17-.1-.33-.22-.45-.06-.1-.1-.22-.1-.28 0-.05-.07-.16-.18-.33-.06-.12-.17-.3-.17-.35-.05-.1-.1-.22-.22-.28-.1 0-.17-.05-.17-.1zm-3.36 17.64c.78-.1 2.46 0 2.46.17 0 .05.12.05.28.1.12 0 .34.07.45.18.12.05.3.17.35.17.17.1.33.16.67.56.1.05.28.16.34.22.05.06.16.17.22.28.06.1.22.22.28.34.1.1.17.22.22.28 0 .05.06.22.17.33.1.1.17.34.17.45.06.1.1.34.17.45.2.28.2 2.52 0 2.8-.07.05-.12.22-.12.4-.06.1-.12.33-.23.44-.05.1-.17.28-.22.4-.06.1-.1.2-.17.2 0 0-.06.07-.06.13-.05.16-.84.95-1 1-.06 0-.12.06-.12.06 0 .06-.1.1-.22.17-.1.05-.28.17-.4.22-.1.1-.33.17-.44.23-.17 0-.34.05-.4.1-.27.23-2.5.23-2.8 0-.1-.05-.33-.1-.44-.16-.1 0-.34-.1-.45-.17-.1-.1-.28-.17-.33-.17-.06-.05-.17-.1-.28-.22-.12-.06-.23-.22-.34-.28-.1-.06-.22-.17-.28-.22-.06-.06-.17-.23-.22-.34-.4-.34-.45-.5-.56-.67 0-.06-.12-.23-.17-.34-.1-.1-.17-.32-.17-.44-.06-.16-.06-.28-.1-.28-.24 0-.3-2.4-.07-2.8.07-.1.12-.33.18-.5.06-.17.1-.34.17-.45.1-.05.17-.22.17-.28.05-.17.28-.45.78-.95.5-.5.78-.73.95-.78.06 0 .23-.06.28-.17.1-.06.28-.1.45-.17.17-.06.4-.1.45-.17.05-.04.28-.1.4-.1zm3.02-15.34c.28-.12.34-.06.45.33l.22.38c.1.17.16.28.16.34s.06.22.12.28c.1.1.16.28.22.4.06.1.1.27.17.33.04.05.16.22.2.4 0 .16.12.27.12.33.06.05.12.16.17.28.05.16.16.33.22.44.1.17.16.28.16.34s.06.22.12.28c.1.1.16.28.22.4.06.1.1.27.17.33.04.05.16.22.2.4 0 .16.12.27.12.33.06.05.12.16.17.28.05.16.16.33.22.44.1.17.16.28.16.34s.06.22.12.28c.1.1.16.28.22.4.06.1.1.27.17.33.2.22.27.5.1.6l-.1.18h-4c-3.35 0-4.24 0-4.36-.2 0-.18.12-.35.23-.57.1-.1.22-.4.45-.8 0-.1.1-.27.16-.32 0-.05.12-.22.17-.33 0-.1.1-.28.17-.33.06-.12.1-.28.17-.4.04-.16.16-.33.2-.4 0-.04.12-.2.12-.32.06-.12.17-.28.17-.34.05-.06.16-.22.22-.34 0-.1.1-.28.16-.33 0-.05.12-.22.17-.33 0-.1.1-.28.17-.4.06-.05.1-.2.17-.33.04-.16.16-.33.2-.4 0-.04.12-.2.12-.32.06-.12.17-.28.17-.34.05-.06.16-.22.22-.34 0-.1.1-.28.16-.33 0-.05.12-.22.17-.33 0-.1.1-.28.17-.4.06-.05.1-.16.22-.2z" stroke="#fff" stroke-opacity="0" fill="#e7157b"/><use xlink:href="#d" transform="matrix(1,0,0,1,-169,-800) translate(0 21.52777777777778)"/><use xlink:href="#b" transform="matrix(1,0,0,1,-169,-800) translate(120.31249999999999 21.52777777777778)"/><path d="M300-820h540v540H300z" stroke="#e7157b" stroke-width="3" fill="#fff" fill-opacity="0"/><path d="M310.13-809.87l.18-.22h35.4l.4.4v35.4l-.4.4h-35.4l-.4-.4v-35.4zm34.66 1.12l-.16-.1H328c-15.08 0-16.68 0-16.8.06-.06.12-.06 1.7-.06 16.8v16.64l.1.15.15.1h33.2l.3-.3v-33.2zM314.3-798.7l.2-.2h11.56l.22.2.22.22v11.58l-.4.4h-11.6l-.2-.22-.2-.18v-11.6zm18.64 8.33c.65-.18 2.02-.18 2.6 0l.65.18c.12 0 .37.12.56.2.14.1.32.17.4.17.06 0 .14.04.17.1.04.05.22.2.37.26.18.08.3.18.3.22l.2.14c.1.03.22.1.22.18.03.07.07.1.07.1.06 0 .57.5.57.55 0 .03.07.14.18.25.1.14.22.25.22.3 0 .02.07.17.14.24.12.1.2.25.2.3 0 .03.07.25.17.46.1.18.22.44.22.5 0 .08.06.33.14.6.2.64.2 1.98 0 2.63-.08.26-.15.5-.15.6 0 .17-.12.38-.23.5-.03.03-.1.2-.14.4-.07.14-.1.28-.14.28-.05 0-.12.1-.2.25-.07.1-.18.3-.3.4-.06.07-.13.18-.13.22 0 0-.18.22-.4.43-.22.22-.4.4-.43.4-.04 0-.1.07-.22.14-.07.08-.3.22-.4.3l-.25.14c0 .04-.1.1-.3.14-.17.08-.3.15-.4.18-.1.1-.3.2-.5.2-.07 0-.32.06-.54.17-.68.2-2.02.2-2.67 0-.26-.1-.5-.18-.58-.18-.07 0-.3-.08-.5-.2-.23-.1-.4-.17-.48-.17-.04 0-.14-.07-.25-.18-.1-.1-.22-.18-.26-.18-.08 0-.2-.07-.3-.18l-.25-.18c-.07 0-.58-.5-.58-.58 0-.03-.03-.07-.1-.07-.08-.04-.15-.15-.2-.25-.06-.08-.1-.2-.13-.2-.04 0-.1-.1-.22-.27-.07-.14-.18-.32-.25-.36-.04-.03-.1-.14-.1-.18 0-.07-.08-.25-.15-.43-.1-.14-.2-.4-.22-.54 0-.12-.1-.4-.18-.67-.18-.57-.18-1.88 0-2.53.1-.25.18-.58.2-.72.05-.18.12-.33.16-.36l.14-.33c.04-.15.15-.33.22-.44.1-.1.18-.22.18-.25 0-.07.47-.68.8-1 .3-.3.9-.8 1-.8.05 0 .15-.08.23-.15.1-.07.3-.18.43-.22.15-.03.3-.1.33-.18.04-.03.22-.07.37-.1l.7-.22zm-7.78-7.16l-.1-.15h-4.78c-4.27 0-4.78.04-4.9.1-.06.08-.06.6-.06 4.86v4.77l.1.15c.15.1.2.1 4.86.1h4.73l.15-.14.1-.14v-4.7c0-4.7 0-4.75-.1-4.86zm10.78-9.16c.22-.17.7-.3.7-.13 0 .03.06.07.17.14.1.05.18.16.2.23 0 .1.12.25.2.4.07.1.14.25.14.3 0 .06.07.17.14.28.1.12.2.3.23.44.04.1.1.25.18.33.05.07.12.2.16.32.03.1.1.28.18.4.1.1.18.24.18.35.03.07.1.22.22.36.07.12.14.27.14.34 0 .04.07.18.15.3.07.1.14.28.18.4.04.1.15.24.2.3.06.08.13.23.17.34.03.1.1.3.18.4.07.1.14.3.18.36.04.07.1.25.18.36.12.14.2.25.2.32 0 .04.03.18.1.3.1.1.18.28.22.4.03.14.1.28.18.35.07.04.14.18.14.3.04.1.15.28.22.4.07.1.14.28.18.4.04.1.14.28.22.35.07.1.1.25.1.3 0 .06.08.17.15.28.08.1.2.3.23.43.03.1.1.26.18.33.26.3.33.9.15 1.23-.03 0-.03.02-.03.06-.15.18-.58.18-6 .15h-5.43l-.16-.18c-.18-.2-.18-.86 0-1.08.07-.07.18-.25.22-.36.03-.1.1-.3.18-.4.07-.07.14-.22.14-.33.04-.1.15-.28.22-.4.1-.14.18-.32.18-.36 0-.08.04-.2.15-.26.07-.1.14-.3.18-.4l.15-.32c.07-.07.15-.22.18-.33.04-.15.15-.33.22-.4.07-.1.14-.26.14-.33.03-.1.1-.3.2-.44.08-.14.16-.28.16-.32 0-.06.07-.17.14-.28.07-.07.18-.25.22-.36.03-.15.1-.3.14-.33.08-.07.15-.22.18-.36l.18-.36c.08-.1.15-.24.2-.35 0-.07.1-.26.17-.4.1-.14.17-.3.17-.36 0-.05.07-.2.14-.27.08-.1.2-.28.2-.4.03-.1.1-.25.17-.32.04-.02.15-.2.18-.3.04-.12.1-.3.2-.4.06-.1.13-.23.13-.34.04-.1.14-.3.22-.43.1-.1.18-.26.18-.33 0-.03.07-.18.18-.3zm-.36 17.56c-.44-.18-2.43-.15-2.68.03-.07.07-.3.14-.43.18-.2.03-.38.1-.48.18-.08.07-.22.14-.3.18-.14.03-.43.25-.93.76-.5.5-.7.76-.77.94-.04.07-.1.2-.18.3-.08.06-.15.28-.2.42-.02.18-.1.4-.17.5-.2.37-.14 2.8.08 2.8.03 0 .07.1.07.25.03.15.1.37.18.48.08.1.2.25.23.36.07.18.18.32.5.68.1.1.22.22.26.3.06.07.17.17.27.25.08.07.26.18.33.3l.3.17c.06.03.2.1.32.18.1.1.32.18.43.18.14.04.32.1.43.18.33.18 2.54.18 2.8 0 .1-.07.28-.14.4-.14.13-.04.35-.1.46-.2l.4-.24c.14-.07.2-.14.2-.14 0-.04.1-.08.12-.1.15-.05.94-.84.98-1 .03-.06.07-.1.1-.1.04 0 .12-.1.15-.2l.24-.45c.08-.1.15-.28.2-.42.02-.1.1-.3.13-.4.22-.25.18-2.46 0-2.8-.07-.1-.14-.3-.14-.42-.04-.1-.1-.33-.2-.43-.1-.1-.17-.26-.2-.33 0-.07-.1-.22-.18-.3-.08-.1-.22-.24-.3-.35-.06-.07-.17-.22-.25-.25-.03-.08-.18-.18-.3-.26-.35-.36-.5-.43-.67-.5-.07-.08-.26-.15-.37-.22-.1-.07-.32-.14-.43-.18l-.25-.07c0-.04-.1-.08-.18-.1zm1.05-15.38c-.1-.14-.44-.03-.55.22-.07.07-.14.25-.18.36-.07.1-.14.26-.18.33-.04.1-.1.24-.18.35l-.14.33c-.08.07-.15.2-.2.32-.02.1-.1.25-.17.36l-.18.36c-.03.1-.14.3-.18.37-.04.1-.15.27-.2.35-.02.1-.13.3-.17.36l-.14.33c-.1.1-.16.26-.2.33-.03.07-.1.25-.18.36-.03.1-.1.25-.14.33-.07.07-.14.25-.22.36-.03.12-.1.3-.18.4-.03.08-.1.26-.18.37l-.14.33c-.08.07-.15.2-.2.32-.17.4-.3.65-.38.8-.15.25-.3.43-.22.54.07.25.98.22 4.3.22h4l.13-.1c.13-.16.06-.45-.12-.66-.07-.04-.14-.22-.18-.33-.04-.12-.1-.3-.22-.4-.07-.08-.1-.22-.1-.26 0-.07-.08-.22-.15-.33-.1-.13-.22-.3-.25-.46-.04-.14-.1-.25-.15-.3-.04-.02-.1-.17-.18-.3-.04-.16-.1-.34-.18-.4-.07-.08-.14-.23-.18-.34-.05-.14-.12-.32-.2-.4-.06-.1-.14-.2-.14-.28 0-.04-.07-.22-.14-.33-.07-.12-.18-.33-.22-.44-.07-.15-.14-.3-.18-.33-.03-.03-.1-.18-.14-.32-.08-.14-.15-.28-.22-.36-.04-.07-.1-.2-.15-.36-.02-.1-.13-.3-.2-.4-.07-.07-.15-.17-.15-.25 0-.07-.07-.2-.14-.32-.06-.1-.17-.32-.2-.43-.05-.14-.12-.25-.15-.3z" stroke="#fff" stroke-opacity="0" fill="#fff"/><path d="M300-764v-56h56v56h-56zm46.14-45.7l-.44-.4h-35.4l-.16.24-.23.16v35.4l.4.44h35.45l.4-.4v-35.44zm-34.88.96c.05-.12 1.68-.12 16.74-.12h16.7l.1.12.1.1v33.27l-.27.28h-33.26l-.1-.1-.13-.1V-792c0-15.06 0-16.7.12-16.74zm15.06 10.08l-.22-.23h-11.6l-.16.24-.23.16v11.6l.24.22.16.22h11.6l.44-.4v-11.64zm9.24 8.28c-.56-.16-1.96-.16-2.58.06-.22.06-.56.1-.67.17-.16.05-.32.1-.38.1-.06.07-.17.12-.34.18-.1.05-.33.17-.4.22-.1.1-.2.17-.27.17-.04 0-.66.5-1 .78-.28.34-.78.96-.78 1 0 .07-.06.18-.17.3-.05.05-.17.27-.22.38-.06.17-.1.28-.17.34 0 .06-.06.22-.1.4-.07.1-.12.44-.24.72-.16.62-.16 1.96 0 2.52.12.22.17.5.17.67.05.1.1.34.22.5.1.17.16.4.16.45 0 .06.06.12.12.17.05.06.16.23.22.4.1.16.22.27.22.27.06 0 .12.12.17.17 0 .1.12.22.18.22l.1.1c0 .06.52.57.57.57 0 0 .1.1.28.2.1.07.23.18.28.18 0 0 .12.06.24.17.1.1.22.17.28.17.05 0 .28.1.44.22.23.06.45.17.56.17.06 0 .34.06.56.18.62.22 2.02.22 2.64 0 .28-.12.5-.17.6-.17.18 0 .4-.1.52-.16 0-.06.22-.17.4-.22.16 0 .27-.12.27-.12 0-.05.12-.1.23-.16l.4-.28c.1-.12.22-.17.22-.17.05 0 .22-.18.45-.4.22-.23.4-.4.4-.45 0 0 .04-.1.16-.23.05-.05.22-.28.28-.4.05-.1.1-.2.16-.2 0 0 .12-.12.12-.3.05-.16.16-.38.22-.38.06-.12.17-.34.17-.5 0-.12.06-.34.18-.62.22-.62.22-2.02 0-2.64-.12-.22-.17-.5-.17-.56 0-.1-.1-.33-.16-.56-.1-.16-.22-.4-.22-.44 0-.06-.06-.17-.17-.28l-.17-.23c0-.04-.1-.16-.17-.27-.1-.17-.2-.28-.2-.28 0-.05-.52-.56-.57-.56 0 0-.06-.06-.06-.12-.05-.06-.17-.1-.28-.17-.06-.04-.18-.1-.18-.16 0 0-.1-.1-.28-.22-.16-.06-.33-.17-.4-.22-.04-.06-.1-.12-.16-.12-.05 0-.28-.05-.44-.16-.17-.12-.4-.17-.5-.23-.18 0-.46-.06-.68-.18zm-20.1-7.16c.05-.12.56-.12 4.87-.12h4.76l.1.12c.1.1.1.16.1 4.87v4.7l-.1.17-.17.1h-4.7c-4.7 0-4.76 0-4.87-.1l-.12-.1v-4.77c0-4.3 0-4.82.12-4.87zm21.22-9.3c0-.06-.1-.06-.22-.06-.28 0-.68.34-.68.5 0 .06-.05.23-.16.34-.12.17-.17.34-.23.45 0 .05-.06.22-.12.33-.1.05-.17.22-.22.4-.06.1-.12.2-.17.33-.07.05-.12.16-.18.28 0 .1-.1.28-.17.4-.1.1-.17.2-.17.27 0 .06-.05.23-.16.34-.12.17-.17.34-.23.45 0 .05-.06.22-.12.33-.1.05-.17.22-.22.4l-.17.27c-.07.1-.12.22-.18.34 0 .1-.1.28-.17.4-.1.1-.17.2-.17.27 0 .06-.05.23-.16.34-.12.17-.17.34-.23.45 0 .05-.06.22-.12.33-.1.05-.17.22-.22.4-.06.1-.12.2-.17.33-.07.05-.12.16-.18.28 0 .1-.1.28-.17.4-.1.1-.17.2-.17.27 0 .06-.05.23-.16.34-.12.17-.17.34-.23.45 0 .05-.06.22-.12.33-.1.05-.17.22-.22.4-.06.1-.12.27-.17.33-.24.22-.24.9-.07 1.12l.17.16h5.43c5.43 0 5.88 0 6-.16 0-.06.05-.06.05-.12.17-.28.1-.9-.17-1.17-.04-.12-.1-.24-.16-.35-.05-.17-.1-.33-.22-.45-.06-.1-.1-.22-.1-.28 0-.05-.07-.16-.12-.28-.12-.1-.17-.28-.23-.4-.05-.1-.1-.27-.22-.38-.06-.1-.1-.28-.17-.4 0-.1-.1-.22-.17-.27-.04-.12-.1-.24-.16-.35-.05-.17-.1-.33-.22-.45-.06-.1-.1-.22-.1-.28 0-.05-.07-.16-.18-.33-.06-.12-.17-.3-.17-.35-.05-.1-.1-.28-.17-.4-.1-.1-.16-.27-.22-.38 0-.1-.1-.23-.17-.28-.04-.12-.1-.24-.16-.35-.05-.17-.1-.33-.22-.45-.06-.1-.1-.22-.1-.28 0-.05-.07-.16-.18-.33-.06-.12-.17-.3-.17-.35-.05-.1-.1-.28-.17-.4-.1-.1-.16-.27-.22-.38 0-.1-.1-.23-.17-.28-.04-.12-.1-.24-.16-.35-.05-.17-.1-.33-.22-.45-.06-.1-.1-.22-.1-.28 0-.05-.07-.16-.18-.33-.06-.12-.17-.3-.17-.35-.05-.1-.1-.22-.22-.28-.1 0-.17-.05-.17-.1zm-3.36 17.64c.78-.1 2.46 0 2.46.17 0 .05.12.05.28.1.12 0 .34.07.45.18.12.05.3.17.35.17.17.1.33.16.67.56.1.05.28.16.34.22.05.06.16.17.22.28.06.1.22.22.28.34.1.1.17.22.22.28 0 .05.06.22.17.33.1.1.17.34.17.45.06.1.1.34.17.45.2.28.2 2.52 0 2.8-.07.05-.12.22-.12.4-.06.1-.12.33-.23.44-.05.1-.17.28-.22.4-.06.1-.1.2-.17.2 0 0-.06.07-.06.13-.05.16-.84.95-1 1-.06 0-.12.06-.12.06 0 .06-.1.1-.22.17-.1.05-.28.17-.4.22-.1.1-.33.17-.44.23-.17 0-.34.05-.4.1-.27.23-2.5.23-2.8 0-.1-.05-.33-.1-.44-.16-.1 0-.34-.1-.45-.17-.1-.1-.28-.17-.33-.17-.06-.05-.17-.1-.28-.22-.12-.06-.23-.22-.34-.28-.1-.06-.22-.17-.28-.22-.06-.06-.17-.23-.22-.34-.4-.34-.45-.5-.56-.67 0-.06-.12-.23-.17-.34-.1-.1-.17-.32-.17-.44-.06-.16-.06-.28-.1-.28-.24 0-.3-2.4-.07-2.8.07-.1.12-.33.18-.5.06-.17.1-.34.17-.45.1-.05.17-.22.17-.28.05-.17.28-.45.78-.95.5-.5.78-.73.95-.78.06 0 .23-.06.28-.17.1-.06.28-.1.45-.17.17-.06.4-.1.45-.17.05-.04.28-.1.4-.1zm3.02-15.34c.28-.12.34-.06.45.33l.22.38c.1.17.16.28.16.34s.06.22.12.28c.1.1.16.28.22.4.06.1.1.27.17.33.04.05.16.22.2.4 0 .16.12.27.12.33.06.05.12.16.17.28.05.16.16.33.22.44.1.17.16.28.16.34s.06.22.12.28c.1.1.16.28.22.4.06.1.1.27.17.33.04.05.16.22.2.4 0 .16.12.27.12.33.06.05.12.16.17.28.05.16.16.33.22.44.1.17.16.28.16.34s.06.22.12.28c.1.1.16.28.22.4.06.1.1.27.17.33.2.22.27.5.1.6l-.1.18h-4c-3.35 0-4.24 0-4.36-.2 0-.18.12-.35.23-.57.1-.1.22-.4.45-.8 0-.1.1-.27.16-.32 0-.05.12-.22.17-.33 0-.1.1-.28.17-.33.06-.12.1-.28.17-.4.04-.16.16-.33.2-.4 0-.04.12-.2.12-.32.06-.12.17-.28.17-.34.05-.06.16-.22.22-.34 0-.1.1-.28.16-.33 0-.05.12-.22.17-.33 0-.1.1-.28.17-.4.06-.05.1-.2.17-.33.04-.16.16-.33.2-.4 0-.04.12-.2.12-.32.06-.12.17-.28.17-.34.05-.06.16-.22.22-.34 0-.1.1-.28.16-.33 0-.05.12-.22.17-.33 0-.1.1-.28.17-.4.06-.05.1-.16.22-.2z" stroke="#fff" stroke-opacity="0" fill="#e7157b"/><use xlink:href="#e" transform="matrix(1,0,0,1,371,-800) translate(0 21.52777777777778)"/><use xlink:href="#f" transform="matrix(1,0,0,1,371,-800) translate(101.82291666666666 21.52777777777778)"/><path d="M760 500c0 33.12-26.88 60-60 60-33.12 0-60-26.88-60-60 0-33.12 26.88-60 60-60 33.12 0 60 26.88 60 60zm-5.52 0c0-30.12-24.36-54.48-54.48-54.48-30.12 0-54.48 24.36-54.48 54.48 0 30.12 24.36 54.48 54.48 54.48 30.12 0 54.48-24.36 54.48-54.48zm-23.16-29.04v36.48c0 12.36-6.48 35.88-31.32 35.88-12.96 0-22.44-6.72-27.6-19.32-2.76-6.72-3.48-13.32-3.72-16.68l5.52-.36c.12 2.4.72 8.76 3.24 15 4.32 10.56 11.88 15.84 22.56 15.84 25.56 0 25.92-29.04 25.92-30.36v-34.68L700 462.44l-25.92 10.32v20.04h-5.4v-21.84c0-1.08.6-2.16 1.68-2.52l28.68-11.52c.6-.24 1.32-.24 1.92 0l28.68 11.52c1.08.36 1.68 1.44 1.68 2.52zm-53.16 36.24h5.52v.96c.36 2.04 4.32 18.72 16.32 18.72s15.96-16.68 16.32-18.72V481.4L700 474.8l-16.32 6.6v11.4h-5.52v-13.2c0-1.2.72-2.16 1.68-2.64l19.2-7.68c.6-.24 1.32-.24 1.92 0l19.2 7.68c.96.48 1.68 1.44 1.68 2.64v28.8c0 .12 0 .36-.12.48-.12.96-4.32 23.4-21.72 23.4s-21.6-22.44-21.84-23.4v-.48zm12.72 2.76l7.32-7.2h-45.96v-5.52h45.96l-7.32-7.2 3.84-3.96 12 12c1.08 1.08 1.08 2.76 0 3.84l-12 12z" stroke="#000" stroke-opacity="0" fill="#4d27aa"/><use xlink:href="#g" transform="matrix(1,0,0,1,610,569) translate(31.119829101562487 16.589501953125)"/><use xlink:href="#h" transform="matrix(1,0,0,1,610,569) translate(70.29698730468749 16.589501953125)"/><path d="M413.68 328.1l3 2.85L400 349l-16.68-18.05 3-2.84 10.92 11.93V297.2l-41.04-21.24 5.52 15.34-3.84 1.4-8.28-23.23 23.64-6.73 1.08 3.9-15.6 4.48L400 292.36l41.28-21.24-15.6-4.48 1.08-3.9 23.64 6.73-8.28 23.24-3.84-1.4 5.52-15.34-41.04 21.24v42.83l10.92-11.92zm34.08-1.05c-3.84 0-6.84-3.07-6.84-6.84s3-6.84 6.84-6.84c3.72 0 6.84 3.07 6.84 6.85s-3.12 6.85-6.84 6.85zm0-19.23c-1.44 0-2.76.35-4.08.7l-12.36-19.94-4.68 2.84 12.48 20.06c-1.68 1.53-2.76 3.65-3.36 5.9h-27.6v5.54h27.6c1.32 5.55 6.12 9.56 12 9.56 6.72 0 12.24-5.43 12.24-12.27s-5.52-12.38-12.24-12.38zm-95.52 19.23c-3.72 0-6.84-3.07-6.84-6.84s3.12-6.84 6.84-6.84c3.84 0 6.84 3.07 6.84 6.85s-3 6.85-6.84 6.85zm39.6-4.13v-5.54h-27.6c-.6-2.25-1.68-4.37-3.36-5.9l12.48-20.06-4.68-2.84-12.36 19.95c-1.32-.36-2.64-.7-4.08-.7-6.72 0-12.24 5.53-12.24 12.38 0 6.85 5.52 12.28 12.24 12.28 5.88 0 10.8-4 12-9.56h27.6zm8.16-86.37c3.72 0 6.84 3.06 6.84 6.84 0 3.77-3.12 6.83-6.84 6.83-3.72 0-6.84-3.06-6.84-6.84 0-3.8 3.12-6.85 6.84-6.85zm-17.88 40.7l13.92-22.3c1.2.48 2.52.7 3.96.7s2.76-.22 3.96-.7l13.92 22.3 4.56-2.94-13.8-22.18c2.28-2.24 3.6-5.3 3.6-8.73 0-6.85-5.52-12.4-12.24-12.4-6.72 0-12.24 5.55-12.24 12.4 0 3.4 1.32 6.48 3.6 8.72l-13.8 22.2 4.56 2.94z" stroke="#000" stroke-opacity="0" fill="#8c4fff"/><use xlink:href="#i" transform="matrix(1,0,0,1,310,358) translate(35.668564453125 16.589501953125)"/><use xlink:href="#j" transform="matrix(1,0,0,1,310,358) translate(77.485869140625 16.589501953125)"/><path d="M-11.82-53.82a6 6 0 0 1 6-6h228a6 6 0 0 1 6 6v108a6 6 0 0 1-6 6h-228a6 6 0 0 1-6-6z" stroke="#3a414a" stroke-width="3" fill="#fff"/><use xlink:href="#k" transform="matrix(1,0,0,1,0.18449477239929024,-47.82000000000005) translate(17.1142578125 43.1875)"/><use xlink:href="#l" transform="matrix(1,0,0,1,0.18449477239929024,-47.82000000000005) translate(45.59619140625 74.646484375)"/><path d="M260 447a6 6 0 0 1 6-6h268a6 6 0 0 1 6 6v106a6 6 0 0 1-6 6H266a6 6 0 0 1-6-6z" stroke="#3a414a" stroke-width="3" fill="#fff"/><use xlink:href="#m" transform="matrix(1,0,0,1,265,446) translate(11.54443359375 48.8125)"/><use xlink:href="#l" transform="matrix(1,0,0,1,265,446) translate(72.59619140625 80.271484375)"/><path d="M-185 230h120v120h-120V230z" stroke="#fff" stroke-opacity="0" fill="#693cc5"/><path d="M-131.22 285.17v-14.42h2.9v6.42l3.94-6.42h3.22l-4.56 6.75 4.94 7.67h-3.45l-4.08-6.97v6.97h-2.92z" stroke="#fff" stroke-opacity="0" fill="#fff"/><path d="M-103.5 283.56c-.83 0-1.54.14-2.37.42l-15.7-23.8c.84-1.16 1.25-2.37 1.25-3.8 0-3.53-2.84-6.4-6.4-6.4-1.4 0-2.66.4-3.78 1.24-2.84 2.13-3.44 6.13-1.3 8.96l-15.75 23.8c-.77-.28-1.54-.42-2.37-.42-2.96 0-5.45 1.95-6.22 4.83-.83 3.38 1.18 6.9 4.62 7.78 3.43.9 6.93-1.2 7.8-4.6h34c.77 2.84 3.26 4.8 6.22 4.8 3.55 0 6.4-2.9 6.4-6.4 0-3.54-2.85-6.42-6.4-6.42zm-46.42 9.6c-1.78 0-3.2-1.43-3.2-3.2 0-1.76 1.42-3.2 3.2-3.2 1.77 0 3.2 1.44 3.2 3.2 0 1.77-1.43 3.2-3.2 3.2zm23.2-40c1.78 0 3.2 1.45 3.2 3.2 0 1.77-1.42 3.2-3.2 3.2-1.77 0-3.2-1.43-3.2-3.2 0-1.75 1.43-3.2 3.2-3.2zm17 35.23h-34c-.22-1-.64-1.77-1.3-2.52l15.7-23.7c.83.4 1.66.6 2.6.6.95 0 1.78-.2 2.67-.6l15.63 23.7c-.65.8-1.06 1.58-1.3 2.56zm6.22 4.77c-1.78 0-3.2-1.44-3.2-3.2 0-1.77 1.42-3.2 3.2-3.2 1.77 0 3.2 1.43 3.2 3.2 0 1.76-1.43 3.2-3.2 3.2zM-85.03 313.7l-1.12.94c-3.6 2.8-8.48 2.8-12.08 0l-2.16-1.85c-4.86-3.86-11.5-3.86-16.38 0l-2.24 1.84c-3.6 2.8-8.48 2.8-12.07 0l-2.15-1.85c-4.88-3.86-11.52-3.86-16.4 0l-2.23 1.84c-3.6 2.8-8.4 2.8-12.08 0l-1.04-.88v4.12c4.88 3.02 10.8 2.7 15.27-.8l2.24-1.88c3.6-2.8 8.5-2.8 12.1 0l2.15 1.87c4.88 3.82 11.5 3.82 16.4 0l2.23-1.87c3.6-2.8 8.48-2.8 12.08 0l2.23 1.87c2.4 1.94 5.03 2.87 8.07 2.8 2.72.05 4.96-.6 7.2-2.06v-4.04z" stroke="#fff" stroke-opacity="0" fill="#fff"/><path d="M-85.03 323.87l-1.12.92c-3.6 2.76-8.48 2.76-12.08 0l-2.16-1.87c-4.86-3.84-11.5-3.84-16.38 0l-2.24 1.86c-3.6 2.76-8.48 2.76-12.07 0l-2.15-1.87c-4.88-3.84-11.52-3.84-16.4 0l-2.23 1.86c-3.6 2.76-8.4 2.76-12.08 0l-1.04-.92V328c4.88 3.05 10.8 2.74 15.27-.8l2.24-1.84c3.6-2.8 8.5-2.8 12.1 0l2.15 1.84c4.88 3.84 11.5 3.84 16.4 0l2.23-1.84c3.6-2.8 8.48-2.8 12.08 0l2.23 1.84c2.4 1.95 5.03 2.86 8.07 2.83 2.72.03 4.96-.62 7.2-2.06v-4.1zM-85.03 302.27l-1.12.9c-3.6 2.8-8.48 2.8-12.08 0l-2.16-1.84c-4.86-3.82-11.5-3.82-16.38 0l-2.24 1.85c-3.6 2.8-8.48 2.8-12.07 0l-2.15-1.85c-4.88-3.82-11.52-3.82-16.4 0l-2.23 1.85c-3.6 2.8-8.48 2.8-12.08 0l-1.04-.9v4.12c4.88 3.05 10.8 2.73 15.27-.8l2.24-1.84c3.6-2.8 8.5-2.8 12.1 0l2.15 1.84c4.88 3.83 11.5 3.83 16.4 0l2.23-1.84c3.6-2.8 8.48-2.8 12.08 0l2.23 1.84c2.4 1.93 5.03 2.84 8.07 2.8 2.72.03 4.96-.62 7.2-2.06v-4.05z" stroke="#fff" stroke-opacity="0" fill="#fff"/><use xlink:href="#n" transform="matrix(1,0,0,1,-215,359) translate(61.181640625 25.1875)"/><path d="M-182.5-740h120v120h-120v-120z" stroke="#fff" stroke-opacity="0" stroke-width="2" fill="#3b48cc"/><path d="M-104.97-694.83c0-4.63-9.1-6.8-17.6-6.8-8.5 0-17.6 2.17-17.6 6.8 0 .26.02.43.06.7v28.85c-.08 4.83 9.06 6.86 17.6 6.86 8.57 0 17.6-2.1 17.6-6.74v-29.67zm-17.57-3.6c9.3 0 14.4 2.56 14.4 3.6 0 1.03-5.05 3.58-14.4 3.58-9.4 0-14.4-2.5-14.4-3.58 0-1.04 5.05-3.6 14.4-3.6zm14.4 33.27c0 1.04-5.05 3.55-14.4 3.55-9.35 0-14.4-2.52-14.4-3.55v-5.06c3.36 1.85 9.04 2.7 14.4 2.7 5.36 0 10.97-.85 14.4-2.67zm0-9.1c0 1.03-5.05 3.58-14.4 3.58-9.4 0-14.4-2.55-14.4-3.6h.04v-6.08c3.4 1.8 9.03 2.68 14.4 2.68 5.36 0 10.97-.87 14.4-2.64zm0-10.2c0 1.03-5.05 3.62-14.4 3.62-9.4 0-14.4-2.6-14.4-3.63h.04v-6.22c3.42 1.83 9 2.65 14.4 2.65s11.07-.87 14.4-2.72zM-157.04-643.18h10.53v3.2h-14.4c-.88 0-1.6-.72-1.6-1.6V-656h3.2v10.5l12-11.98 2.24 2.26zM-82.5-655.98v14.4c0 .9-.7 1.6-1.6 1.6h-14.4v-3.2h10.54l-11.82-11.85 2.26-2.25 11.82 11.8v-10.5zM-82.5-718.38v14.4h-3.2v-10.57l-11.82 11.83-2.26-2.26 11.8-11.8H-98.5v-3.2h14.4c.9 0 1.6.7 1.6 1.6zM-145.06-704.8l-2.23 2.24-12-12V-704h-3.2v-14.4c0-.9.72-1.62 1.6-1.62h14.4v3.2h-10.54zM-147.04-665.66c-9.78-3.5-15.38-8.9-15.38-14.74s5.6-11.2 15.38-14.74l1.08 3c-8.3 3.02-13.27 7.38-13.27 11.74s4.98 8.72 13.27 11.73zM-98.85-665.3l-1.03-3.06c8.88-3 14.18-7.48 14.18-12.04 0-4.56-5.3-9.05-14.18-12.07l1.03-3.02c10.4 3.5 16.35 9.03 16.35 15.1 0 6.06-5.96 11.56-16.35 15.1z" stroke="#fff" stroke-opacity="0" stroke-width="2" fill="#fff"/><use xlink:href="#o" transform="matrix(1,0,0,1,-212.5,-611) translate(15.51025390625 25.1875)"/><use xlink:href="#p" transform="matrix(1,0,0,1,-212.5,-611) translate(112.31201171875 25.1875)"/><path d="M48.18-520h120v120h-120v-120z" stroke="#fff" stroke-opacity="0" stroke-width="2" fill="#d6242d"/><path d="M126.32-439.56l2.26-2.27 19.13 19.12-2.26 2.26-19.12-19.12zM68.65-497.26l2.25-2.25 21.22 21.2-2.26 2.25-21.2-21.2zM73.45-427.44l11.2-11.2 2.26 2.26-11.2 11.2-2.25-2.26zM129.45-483.46l11.2-11.2 2.26 2.27-11.2 11.2-2.25-2.26z" stroke="#fff" stroke-opacity="0" stroke-width="1.41" fill="#fff"/><path d="M144.92-461.57c-.3-7.5-2.5-13.83-6.9-19.9l-2.6 1.9c4 5.5 6 11.2 6.3 18h-3.2v3.2h3.2c-.27 6.83-2.26 12.56-6.3 18.12l2.6 1.85c4.43-6.12 6.62-12.45 6.9-20h3.2v-3.22zM88.53-487.17c5.53-4 11.23-6 18.06-6.28v3.08h3.18v-3.08c6.83.3 12.53 2.28 18.06 6.28l1.94-2.6c-6.13-4.4-12.44-6.6-20-6.88v-3.32h-3.2v3.32c-7.55.28-13.86 2.47-20 6.88zM127.84-432.67c-5.53 4-11.23 6-18.06 6.3v-3.22h-3.2v3.22c-6.82-.3-12.52-2.3-18.05-6.3l-1.95 2.6c6.14 4.42 12.45 6.6 20 6.9v3.2h3.2v-3.2c7.56-.3 13.87-2.48 20-6.9zM78.35-438.4l2.6-1.9c-4.04-5.5-6.03-11.25-6.3-18.1h3.2v-3.2h-3.2c.3-6.8 2.3-12.5 6.3-18l-2.6-1.9c-4.4 6.07-6.6 12.4-6.9 19.9h-3.2v3.2h3.2c.27 7.54 2.47 13.88 6.9 20zM116.02-481.2c-2.3-1.9-4.86-2.8-7.84-2.77-6.17 0-11.2 4.36-11.2 9.76v7.8h-3.2c-.9 0-1.6.75-1.6 1.6v22.43c0 .44.16.82.48 1.13.3.3.68.47 1.12.47h28.8c.9 0 1.6-.73 1.6-1.6v-22.42c0-.42-.16-.76-.44-1.07-.32-.34-.7-.52-1.16-.52h-3.2v-7.8c-.03-2.8-1.18-5.23-3.36-7zm-15.84 7c0-3.63 3.62-6.57 8-6.57 2.18-.05 4.07.6 5.76 1.98 1.44 1.18 2.2 2.74 2.28 4.6v7.8h-16zm20.8 15.85h-4.8v3.2h4.8v3.2h-4.8v3.2h4.8v4.8h-25.6v-19.24h25.6z" stroke="#fff" stroke-opacity="0" stroke-width="2" fill="#fff"/><path d="M106.58-451.6v4.43h3.2v-4.42c1.36-.47 2.3-1.43 2.8-2.8.9-2.43-.36-5.12-2.8-6-2.43-.87-5.12.38-6 2.8-.9 2.45.37 5.14 2.8 6zm1.6-6.1c.96 0 1.74.76 1.75 1.72 0 .95-.76 1.73-1.72 1.75-.94 0-1.72-.76-1.73-1.72v-.06c0-.94.78-1.7 1.7-1.7z" stroke="#fff" stroke-opacity="0" stroke-width="2" fill="#fff"/><use xlink:href="#q" transform="matrix(1,0,0,1,18.184494772399262,-391) translate(45.25537109375 25.1875)"/><use xlink:href="#r" transform="matrix(1,0,0,1,18.184494772399262,-391) translate(30.71923828125 56.646484375)"/><use xlink:href="#s" transform="matrix(1,0,0,1,18.184494772399262,-391) translate(53.4248046875 88.10546875)"/><path d="M-65-437.64c0 31.8-25.76 57.63-57.5 57.63s-57.5-25.83-57.5-57.64c0-31.8 25.76-57.63 57.5-57.63S-65-469.45-65-437.64z" fill="#9d5025"/><path d="M-65-442.37c0 31.8-25.76 57.63-57.5 57.63s-57.5-25.82-57.5-57.63c0-31.8 25.76-57.63 57.5-57.63S-65-474.18-65-442.37z" fill="#f58536"/><path d="M-67.66-442.18l-20.4-11.76v7.04h-29.73v-29.8h7.03l-11.74-20.44-11.74 20.44h7.02v29.8h-29.73v-7.04l-20.4 11.76 20.4 11.76v-7.03h29.73v29.8h-7.02l11.73 20.44 11.73-20.46h-7.02v-29.8h29.74v7.04l20.4-11.76z" fill="#fff"/><path d="M-138.22-428.5c-5.86 0-10.22-4.42-10.22-8.4v-.86c.25-4.07 2.7-7.35 6.48-8.78l.37-.1v-.6c0-7.23 5.82-13.1 13.03-13.1 5.24 0 9.7 2.88 11.9 7.65l.25.6.47-.36c2.9-2 6.85-1.25 8.82 1.65.72 1 1.1 2.1 1.14 3.37v.4h.42c4.88.55 8.57 4.34 9.04 9.2v.9c0 3.98-4.36 8.4-10.23 8.4z" fill="#f58536"/><path d="M-128.58-458.46c4.5 0 8.28 2.46 10.17 6.56l1.16 2.6 2.28-1.6c2.06-1.43 4.84-.9 6.22 1.1.5.75.73 1.5.78 2.4v2.1l2.12.18c3.9.5 6.78 3.45 7.28 7.34v.9c0 3.02-3.6 6.48-8.28 6.48h-31.4c-4.68 0-8.3-3.5-8.3-6.5v-.88c.28-3.17 2.17-5.74 5.12-6.92l1.78-.53v-2.03c0-6.17 4.94-11.16 11.1-11.2m0-3.78c-8 0-14.5 6.24-14.88 14.26-4.06 1.97-6.56 5.7-6.84 10.24v.9c0 5.44 5.67 10.26 12.12 10.26h31.35c6.46 0 12.13-4.82 12.13-10.27v-.9c-.44-5.48-4.22-9.8-9.62-10.94-.1-.6-.27-1.13-.5-1.7-1.77-4.2-6.6-6.17-10.83-4.4-2.72-4.73-7.4-7.4-12.9-7.4z" fill="#fff"/><use xlink:href="#t" transform="matrix(1,0,0,1,-180,-380) translate(30.73193359375 25.1875)"/><use xlink:href="#u" transform="matrix(1,0,0,1,-180,-380) translate(10.48291015625 56.646484375)"/><path d="M-65-7.46c0 31.8-25.76 57.63-57.5 57.63S-180 24.35-180-7.46c0-31.8 25.76-57.63 57.5-57.63S-65-39.26-65-7.45z" fill="#9d5025"/><path d="M-65-12.2c0 31.82-25.76 57.64-57.5 57.64S-180 19.62-180-12.2c0-31.8 25.76-57.62 57.5-57.62S-65-44-65-12.2z" fill="#f58536"/><path d="M-67.66-12l-20.4-11.76v7.04h-29.73v-29.8h7.03l-11.74-20.44-11.74 20.44h7.02v29.8h-29.73v-7.04L-177.35-12l20.4 11.77v-7.04h29.73v29.8h-7.02l11.73 20.44 11.73-20.45h-7.02v-29.8h29.74v7.04L-67.66-12z" fill="#fff"/><path d="M-138.22 1.7c-5.86 0-10.22-4.44-10.22-8.42v-.86c.25-4.07 2.7-7.35 6.48-8.78l.37-.1v-.6c0-7.23 5.82-13.1 13.03-13.1 5.24 0 9.7 2.88 11.9 7.65l.25.57.47-.36v.02c2.9-2 6.85-1.25 8.82 1.65.72 1.02 1.1 2.1 1.14 3.38v.4h.42c4.88.55 8.57 4.34 9.04 9.2v.9c0 3.98-4.36 8.4-10.23 8.4z" fill="#f58536"/><path d="M-128.58-28.28c4.5 0 8.28 2.46 10.17 6.56l1.16 2.6 2.28-1.6c2.06-1.43 4.84-.9 6.22 1.1.5.76.73 1.5.78 2.4v2.1l2.12.18c3.9.5 6.78 3.46 7.28 7.34v.9c0 3.02-3.6 6.48-8.28 6.48h-31.4c-4.68 0-8.3-3.5-8.3-6.5v-.88c.28-3.17 2.17-5.74 5.12-6.92l1.78-.53v-2.03c0-6.17 4.94-11.16 11.1-11.2m0-3.78c-8 0-14.5 6.24-14.88 14.27-4.06 1.97-6.56 5.7-6.84 10.24v.9c0 5.44 5.67 10.26 12.12 10.26h31.35c6.46 0 12.13-4.82 12.13-10.27v-.9c-.44-5.48-4.22-9.8-9.62-10.94-.1-.6-.27-1.15-.5-1.72-1.77-4.2-6.6-6.17-10.83-4.4v.02c-2.72-4.75-7.4-7.42-12.9-7.42z" fill="#fff"/><use xlink:href="#t" transform="matrix(1,0,0,1,-180,50.17999999999995) translate(30.73193359375 25.1875)"/><use xlink:href="#v" transform="matrix(1,0,0,1,-180,50.17999999999995) translate(10.2099609375 56.646484375)"/><path d="M-65.06.18h35.36" stroke="#3a414a" fill="none"/><path d="M-65.04.66h-.58l.13-.95h.46z" stroke="#3a414a" stroke-width=".05" fill="#3a414a"/><path d="M-14.93.18L-29.2 4.82v-9.27z" stroke="#3a414a" fill="#3a414a"/><path d="M122.82 130.16c-8.76 0-16.32 5.67-19.2 13.6h6c2.4-4.87 7.44-8.2 13.2-8.2 8.28 0 15 6.75 15 15.03 0 8.27-6.72 15.02-15 15.02-4.56 0-8.76-2.16-11.52-5.5h-6.48c3.48 6.5 10.2 10.9 18 10.9 11.28 0 20.4-9.18 20.4-20.43 0-11.26-9.12-20.44-20.4-20.44zM48.18 173.8h35.28v-5.48H48.18v5.5zm0-40.94h35.28v-5.5H48.18v5.5zm0 21.78h73.32v-5.4H48.18v5.4zm113.64 26.64l-13.68-12.42c-1.08 1.62-2.4 3.06-3.84 4.4l13.56 12.34c1.2 1.08 3.12 1 4.2-.27.96-1.17.96-2.97-.24-4.05zm4.2 7.74c-1.56 1.8-3.84 2.8-6.12 2.8-2.04 0-4.08-.73-5.64-2.17l-14.16-12.87c-5.04 3.24-10.92 5.13-17.28 5.13-13.92 0-25.68-9.17-29.76-21.77h5.88c3.72 9.54 13.08 16.38 23.88 16.38 14.28 0 25.8-11.6 25.8-25.9 0-14.32-11.52-25.93-25.8-25.93-11.88 0-21.84 8.1-24.84 19.08h-5.64c3.12-14.04 15.6-24.48 30.48-24.48 17.28 0 31.2 14.04 31.2 31.32 0 4.85-1.08 9.44-3 13.5l14.4 13.13c3.48 3.06 3.72 8.37.6 11.8zM48.18 195.6h51.6v-5.5h-51.6v5.5zm0-84.52h57v-5.5h-57v5.5z" stroke="#000" stroke-opacity="0" fill="#e7157b"/><use xlink:href="#w" transform="matrix(1,0,0,1,18.184494772399262,204.58999999999997) translate(3.2052951388888857 21.52777777777778)"/><use xlink:href="#x" transform="matrix(1,0,0,1,18.184494772399262,204.58999999999997) translate(137.27647569444446 21.52777777777778)"/><use xlink:href="#y" transform="matrix(1,0,0,1,18.184494772399262,204.58999999999997) translate(57.67578125 53.79340277777778)"/><path d="M230.68.18h48.16a6 6 0 0 1 6 6V284a6 6 0 0 0 6 6h30.66" stroke="#3a414a" stroke-width="2" fill="none"/><path d="M230.7 1.16h-1.02V-.8h1.03z" stroke="#3a414a" stroke-width=".05" fill="#3a414a"/><path d="M336.76 290l-14.26 4.63v-9.26z" stroke="#3a414a" stroke-width="2" fill="#3a414a"/><path d="M542.5 500h79" stroke="#3a414a" stroke-width="2" fill="none"/><path d="M542.53 500.98h-1.03v-1.96h1.03z" stroke="#3a414a" stroke-width=".05" fill="#3a414a"/><path d="M636.76 500l-14.26 4.63v-9.26z" stroke="#3a414a" stroke-width="2" fill="#3a414a"/><path d="M108.18 62.68v24.4" stroke="#3a414a" stroke-width="2" fill="none"/><path d="M109.16 62.7h-1.95V61.7h1.96z" stroke="#3a414a" stroke-width=".05" fill="#3a414a"/><path d="M108.18 102.35l-4.63-14.26h9.27z" stroke="#3a414a" stroke-width="2" fill="#3a414a"/><path d="M-121.53-88.32h-1.94v-227.22h1.94zm0-287.68h-1.94v-3h1.94z" stroke="#3a414a" stroke-width=".05" fill="#3a414a"/><path d="M-122.5-380h.53l.44-.04v1.05h-1.94v-1.05z" fill="#3a414a"/><path stroke="#3a414a" stroke-width=".05" fill="#3a414a"/><path d="M-122.5-73.06l-4.64-14.26h9.28z" fill="#3a414a"/><path d="M-122.5-69.9l-5.98-18.4h11.96zm-3.3-16.45l3.3 10.14 3.3-10.15zM109.16-79.82h-1.95v-9.67h1.96zm0-19.35h-1.95v-19.34h1.96zm0-29h-1.95v-19.36h1.96zm0-29.03h-1.95v-19.34h1.96zm0-29.02h-1.95v-19.34h1.96zm0-29h-1.95v-19.35h1.96zm0-29.03h-1.95v-19.34h1.96zm0-29h-1.95v-19.36h1.96zm0-116.08h-1.95V-399h1.96z" stroke="#3a414a" stroke-width=".05" fill="#3a414a"/><path d="M109.16-398.97h-1.95V-400h1.96z" fill="#3a414a"/><path stroke="#3a414a" stroke-width=".05" fill="#3a414a"/><path d="M108.18-64.56l-4.63-14.26h9.27z" fill="#3a414a"/><path d="M108.18-61.4l-5.97-18.4h11.96zm-3.3-16.45l3.3 10.14 3.3-10.15zM-121.53-518.5h-1.94V-578h1.94zm0-88.5h-1.94v-12h1.94z" stroke="#3a414a" stroke-width=".05" fill="#3a414a"/><path d="M-121.53-618.97h-1.94V-620h1.94z" fill="#3a414a"/><path stroke="#3a414a" stroke-width=".05" fill="#3a414a"/><path d="M-122.5-503.24l-4.64-14.26h9.28z" fill="#3a414a"/><path d="M-122.5-500.08l-5.98-18.4h11.96zm-3.3-16.45l3.3 10.14 3.3-10.13z" stroke="#3a414a" stroke-width=".05" fill="#3a414a"/><path d="M340-740h120v120H340v-120z" stroke="#000" stroke-opacity="0" fill="url(#z)"/><path d="M381.26-663.08h35.67v-33.84h-35.67v33.84zm39.38-33.84h5.6v3.8h-5.6v3.7h5.6v3.8h-5.6v3.72h5.6v3.8h-5.6v5.6h5.6v3.73h-5.6v3.8h5.6v3.7h-5.85c-.5 1.17-1.58 1.9-2.9 1.9h-.57v5.62h-3.8v-5.6h-3.72v5.6h-3.8v-5.6h-3.7v5.6h-3.8v-5.6h-3.7v5.6h-3.8v-5.6h-5.63v5.6h-3.7v-5.6h-.67c-1.32 0-2.4-.75-2.9-1.9h-3.95v-3.72h3.7v-3.8h-3.7v-3.72h3.7v-5.6h-3.7v-3.8h3.7v-3.7h-3.7v-3.8h3.7v-3.73h-3.7v-3.8h3.7v-.57c0-1.74 1.42-3.14 3.15-3.14h.66v-5.6h3.7v5.6h5.63v-5.6h3.8v5.6h3.7v-5.6h3.8v5.6h3.7v-5.6h3.8v5.6h3.73v-5.6h3.8v5.6h.57c1.74 0 3.14 1.4 3.14 3.14v.58zM400-642.42h-37.56V-680h7.5v-3.72h-7.75c-1.9 0-3.48 1.5-3.48 3.4v38.13c0 1.9 1.57 3.48 3.47 3.48h38.13c1.9 0 3.38-1.57 3.38-3.47v-7.75H400v7.52zm41.28-75.4v38.15c0 1.9-1.57 3.38-3.47 3.38h-7.75v-3.7h7.5v-37.57H400v7.52h-3.7v-7.76c0-1.9 1.47-3.48 3.37-3.48h38.14c1.9 0 3.48 1.57 3.48 3.47z" stroke="#000" stroke-opacity="0" fill="#fff"/><use xlink:href="#A" transform="matrix(1,0,0,1,310,-611) translate(35.63232421875 25.1875)"/><use xlink:href="#B" transform="matrix(1,0,0,1,310,-611) translate(54.6435546875 56.646484375)"/><path d="M457.5-437.64c0 31.8-25.76 57.63-57.5 57.63s-57.5-25.83-57.5-57.64c0-31.8 25.76-57.63 57.5-57.63s57.5 25.82 57.5 57.63z" fill="#9d5025"/><path d="M457.5-442.37c0 31.8-25.76 57.63-57.5 57.63s-57.5-25.82-57.5-57.63c0-31.8 25.76-57.63 57.5-57.63s57.5 25.82 57.5 57.63z" fill="#f58536"/><path d="M454.84-442.18l-20.4-11.76v7.04H404.7v-29.8h7.03L400-497.14l-11.74 20.44h7.02v29.8h-29.73v-7.04l-20.4 11.76 20.4 11.76v-7.03h29.73v29.8h-7.02L400-387.22l11.73-20.46h-7.02v-29.8h29.74v7.04l20.4-11.76z" fill="#fff"/><path d="M384.28-428.5c-5.86 0-10.22-4.42-10.22-8.4v-.86c.25-4.07 2.7-7.35 6.48-8.78l.37-.1v-.6c0-7.23 5.82-13.1 13.03-13.1 5.25 0 9.7 2.88 11.9 7.65l.25.6.47-.36c2.9-2 6.85-1.25 8.82 1.65.73 1 1.1 2.1 1.14 3.37v.4h.43c4.87.55 8.56 4.34 9.03 9.2v.9c0 3.98-4.36 8.4-10.23 8.4z" fill="#f58536"/><path d="M393.92-458.46c4.5 0 8.28 2.46 10.17 6.56l1.16 2.6 2.28-1.6c2.06-1.43 4.84-.9 6.22 1.1.5.75.73 1.5.78 2.4v2.1l2.12.18c3.9.5 6.78 3.45 7.28 7.34v.9c0 3.02-3.62 6.48-8.28 6.48h-31.4c-4.68 0-8.3-3.5-8.3-6.5v-.88c.28-3.17 2.17-5.74 5.12-6.92l1.78-.53v-2.03c0-6.17 4.94-11.16 11.12-11.2m0-3.78c-8 0-14.5 6.24-14.9 14.26-4.06 1.97-6.56 5.7-6.84 10.24v.9c0 5.44 5.67 10.26 12.12 10.26h31.35c6.46 0 12.13-4.82 12.13-10.27v-.9c-.44-5.48-4.22-9.8-9.62-10.94-.1-.6-.26-1.13-.5-1.7-1.77-4.2-6.6-6.17-10.83-4.4-2.72-4.73-7.4-7.4-12.9-7.4z" fill="#fff"/><use xlink:href="#t" transform="matrix(1,0,0,1,342.5,-380) translate(30.73193359375 25.1875)"/><use xlink:href="#u" transform="matrix(1,0,0,1,342.5,-380) translate(10.48291015625 56.646484375)"/><path d="M562.5-520h120v120h-120v-120z" stroke="#fff" stroke-opacity="0" stroke-width="2" fill="#d6242d"/><path d="M640.63-439.56l2.27-2.27 19.13 19.12-2.27 2.26-19.13-19.12zM582.97-497.26l2.25-2.25 21.2 21.2-2.24 2.25-21.2-21.2zM587.77-427.44l11.2-11.2 2.26 2.26-11.2 11.2-2.26-2.26zM643.77-483.46l11.2-11.2 2.26 2.27-11.2 11.2-2.26-2.26z" stroke="#fff" stroke-opacity="0" stroke-width="1.41" fill="#fff"/><path d="M659.24-461.57c-.32-7.5-2.5-13.83-6.9-19.9l-2.6 1.9c4 5.5 5.98 11.2 6.3 18h-3.2v3.2h3.2c-.28 6.83-2.27 12.56-6.3 18.12l2.6 1.85c4.42-6.12 6.62-12.45 6.9-20h3.2v-3.22zM602.84-487.17c5.53-4 11.24-6 18.06-6.28v3.08h3.2v-3.08c6.82.3 12.53 2.28 18.06 6.28l1.94-2.6c-6.13-4.4-12.44-6.6-20-6.88v-3.32h-3.2v3.32c-7.56.28-13.87 2.47-20 6.88zM642.16-432.67c-5.53 4-11.24 6-18.06 6.3v-3.22h-3.2v3.22c-6.82-.3-12.53-2.3-18.06-6.3l-1.94 2.6c6.13 4.42 12.44 6.6 20 6.9v3.2h3.2v-3.2c7.56-.3 13.87-2.48 20-6.9zM592.66-438.4l2.6-1.9c-4.03-5.5-6.02-11.25-6.3-18.1h3.2v-3.2h-3.2c.32-6.8 2.3-12.5 6.3-18l-2.6-1.9c-4.4 6.07-6.58 12.4-6.9 19.9h-3.2v3.2h3.2c.28 7.54 2.48 13.88 6.9 20zM630.34-481.2c-2.3-1.9-4.86-2.8-7.84-2.77-6.18 0-11.2 4.36-11.2 9.76v7.8h-3.2c-.9 0-1.6.75-1.6 1.6v22.43c0 .44.16.82.48 1.13.3.3.67.47 1.12.47h28.8c.9 0 1.6-.73 1.6-1.6v-22.42c0-.42-.16-.76-.45-1.07-.32-.34-.7-.52-1.15-.52h-3.2v-7.8c-.03-2.8-1.18-5.23-3.36-7zm-15.84 7c0-3.63 3.62-6.57 8-6.57 2.18-.05 4.06.6 5.76 1.98 1.44 1.18 2.2 2.74 2.27 4.6v7.8h-16zm20.8 15.85h-4.8v3.2h4.8v3.2h-4.8v3.2h4.8v4.8h-25.6v-19.24h25.6z" stroke="#fff" stroke-opacity="0" stroke-width="2" fill="#fff"/><path d="M620.9-451.6v4.43h3.2v-4.42c1.35-.47 2.3-1.43 2.8-2.8.9-2.43-.37-5.12-2.8-6-2.44-.87-5.13.38-6 2.8-.9 2.45.37 5.14 2.8 6zm1.6-6.1c.96 0 1.74.76 1.74 1.72 0 .95-.75 1.73-1.7 1.75-.96 0-1.75-.76-1.76-1.72v-.06c0-.94.78-1.7 1.72-1.7z" stroke="#fff" stroke-opacity="0" stroke-width="2" fill="#fff"/><use xlink:href="#C" transform="matrix(1,0,0,1,532.5,-391) translate(35.63232421875 25.1875)"/><use xlink:href="#r" transform="matrix(1,0,0,1,532.5,-391) translate(30.71923828125 56.646484375)"/><use xlink:href="#s" transform="matrix(1,0,0,1,532.5,-391) translate(53.4248046875 88.10546875)"/><path d="M502.5-53.82a6 6 0 0 1 6-6h228a6 6 0 0 1 6 6v108a6 6 0 0 1-6 6h-228a6 6 0 0 1-6-6z" stroke="#3a414a" stroke-width="3" fill="#fff"/><use xlink:href="#D" transform="matrix(1,0,0,1,514.5,-47.82000000000005) translate(-0.4814453125 57.4580078125)"/><path d="M457.5-7.46c0 31.8-25.76 57.63-57.5 57.63s-57.5-25.82-57.5-57.63c0-31.8 25.76-57.63 57.5-57.63s57.5 25.83 57.5 57.64z" fill="#9d5025"/><path d="M457.5-12.2c0 31.82-25.76 57.64-57.5 57.64s-57.5-25.82-57.5-57.63c0-31.8 25.76-57.62 57.5-57.62S457.5-44 457.5-12.2z" fill="#f58536"/><path d="M454.84-12l-20.4-11.76v7.04H404.7v-29.8h7.03L400-66.96l-11.74 20.44h7.02v29.8h-29.73v-7.04L345.15-12l20.4 11.77v-7.04h29.73v29.8h-7.02L400 42.96l11.73-20.45h-7.02v-29.8h29.74v7.04L454.84-12z" fill="#fff"/><path d="M384.28 1.7c-5.86 0-10.22-4.44-10.22-8.42v-.86c.25-4.07 2.7-7.35 6.48-8.78l.37-.1v-.6c0-7.23 5.82-13.1 13.03-13.1 5.25 0 9.7 2.88 11.9 7.65l.25.57.47-.36v.02c2.9-2 6.85-1.25 8.82 1.65.73 1.02 1.1 2.1 1.14 3.38v.4h.43c4.87.55 8.56 4.34 9.03 9.2v.9c0 3.98-4.36 8.4-10.23 8.4z" fill="#f58536"/><path d="M393.92-28.28c4.5 0 8.28 2.46 10.17 6.56l1.16 2.6 2.28-1.6c2.06-1.43 4.84-.9 6.22 1.1.5.76.73 1.5.78 2.4v2.1l2.12.18c3.9.5 6.78 3.46 7.28 7.34v.9c0 3.02-3.62 6.48-8.28 6.48h-31.4c-4.68 0-8.3-3.5-8.3-6.5v-.88c.28-3.17 2.17-5.74 5.12-6.92l1.78-.53v-2.03c0-6.17 4.94-11.16 11.12-11.2m0-3.78c-8 0-14.5 6.24-14.9 14.27-4.06 1.97-6.56 5.7-6.84 10.24v.9c0 5.44 5.67 10.26 12.12 10.26h31.35c6.46 0 12.13-4.82 12.13-10.27v-.9c-.44-5.48-4.22-9.8-9.62-10.94-.1-.6-.26-1.15-.5-1.72-1.77-4.2-6.6-6.17-10.83-4.4v.02c-2.72-4.75-7.4-7.42-12.9-7.42z" fill="#fff"/><use xlink:href="#t" transform="matrix(1,0,0,1,342.5,50.17999999999995) translate(30.73193359375 25.1875)"/><use xlink:href="#u" transform="matrix(1,0,0,1,342.5,50.17999999999995) translate(10.48291015625 56.646484375)"/><path d="M457.44.18h27.18" stroke="#3a414a" fill="none"/><path d="M457.46.66h-.58L457-.3h.46z" stroke="#3a414a" stroke-width=".05" fill="#3a414a"/><path d="M499.38.18l-14.26 4.64v-9.27z" stroke="#3a414a" fill="#3a414a"/><path d="M623.48-79.82h-1.96v-9.67h1.96zm0-19.35h-1.96v-19.34h1.96zm0-29h-1.96v-19.36h1.96zm0-29.03h-1.96v-19.34h1.96zm0-29.02h-1.96v-19.34h1.96zm0-29h-1.96v-19.35h1.96zm0-29.03h-1.96v-19.34h1.96zm0-29h-1.96v-19.36h1.96zm0-116.08h-1.96V-399h1.96z" stroke="#3a414a" stroke-width=".05" fill="#3a414a"/><path d="M623.48-398.97h-1.96V-400h1.96z" fill="#3a414a"/><path stroke="#3a414a" stroke-width=".05" fill="#3a414a"/><path d="M622.5-64.56l-4.63-14.26h9.26z" fill="#3a414a"/><path d="M622.5-61.4l-5.98-18.4h11.96zm-3.3-16.45l3.3 10.14 3.3-10.15zM400.98-88.32h-1.96v-227.22h1.96zm0-287.68h-1.96v-3h1.96z" stroke="#3a414a" stroke-width=".05" fill="#3a414a"/><path d="M400-380h.53l.45-.04v1.05h-1.96v-1.05z" fill="#3a414a"/><path stroke="#3a414a" stroke-width=".05" fill="#3a414a"/><path d="M400-73.06l-4.63-14.26h9.26z" fill="#3a414a"/><path d="M400-69.9l-5.98-18.4h11.96zm-3.3-16.45L400-76.2l3.3-10.15zM400.98-518.5h-1.96v-33.04h1.96zm0-88.5h-1.96v-12h1.96z" stroke="#3a414a" stroke-width=".05" fill="#3a414a"/><path d="M400.98-618.97h-1.96V-620h1.96z" fill="#3a414a"/><path stroke="#3a414a" stroke-width=".05" fill="#3a414a"/><path d="M400-503.24l-4.63-14.26h9.26z" fill="#3a414a"/><path d="M400-500.08l-5.98-18.4h11.96zm-3.3-16.45l3.3 10.14 3.3-10.13z" stroke="#3a414a" stroke-width=".05" fill="#3a414a"/><path d="M622.5 62.68v24.4" stroke="#3a414a" stroke-width="2" fill="none"/><path d="M623.48 62.7h-1.96V61.7h1.96z" stroke="#3a414a" stroke-width=".05" fill="#3a414a"/><path d="M622.5 102.35l-4.63-14.26h9.26z" stroke="#3a414a" stroke-width="2" fill="#3a414a"/><path d="M745 .18h33a6 6 0 0 1 6 6V284a6 6 0 0 1-6 6H478.5" stroke="#3a414a" stroke-width="2" fill="none"/><path d="M745.03 1.16H744V-.8h1.03z" stroke="#3a414a" stroke-width=".05" fill="#3a414a"/><path d="M463.24 290l14.26-4.63v9.26z" stroke="#3a414a" stroke-width="2" fill="#3a414a"/><path d="M637.14 130.16c-8.76 0-16.32 5.67-19.2 13.6h6c2.4-4.87 7.44-8.2 13.2-8.2 8.28 0 15 6.75 15 15.03 0 8.27-6.72 15.02-15 15.02-4.56 0-8.76-2.16-11.52-5.5h-6.48c3.48 6.5 10.2 10.9 18 10.9 11.28 0 20.4-9.18 20.4-20.43 0-11.26-9.12-20.44-20.4-20.44zM562.5 173.8h35.28v-5.48H562.5v5.5zm0-40.94h35.28v-5.5H562.5v5.5zm0 21.78h73.32v-5.4H562.5v5.4zm113.64 26.64l-13.68-12.42c-1.08 1.62-2.4 3.06-3.84 4.4l13.56 12.34c1.2 1.08 3.12 1 4.2-.27.96-1.17.96-2.97-.24-4.05zm4.2 7.74c-1.56 1.8-3.84 2.8-6.12 2.8-2.04 0-4.08-.73-5.64-2.17l-14.16-12.87c-5.04 3.24-10.92 5.13-17.28 5.13-13.92 0-25.68-9.17-29.76-21.77h5.88c3.72 9.54 13.08 16.38 23.88 16.38 14.28 0 25.8-11.6 25.8-25.9 0-14.32-11.52-25.93-25.8-25.93-11.88 0-21.84 8.1-24.84 19.08h-5.64c3.12-14.04 15.6-24.48 30.48-24.48 17.28 0 31.2 14.04 31.2 31.32 0 4.85-1.08 9.44-3 13.5l14.4 13.13c3.48 3.06 3.72 8.37.6 11.8zM562.5 195.6h51.6v-5.5h-51.6v5.5zm0-84.52h57v-5.5h-57v5.5z" stroke="#000" stroke-opacity="0" fill="#e7157b"/><use xlink:href="#E" transform="matrix(1,0,0,1,532.5,204.58999999999997) translate(3.2052951388888857 21.52777777777778)"/><use xlink:href="#F" transform="matrix(1,0,0,1,532.5,204.58999999999997) translate(137.27647569444446 21.52777777777778)"/><use xlink:href="#y" transform="matrix(1,0,0,1,532.5,204.58999999999997) translate(57.67578125 53.79340277777778)"/><path d="M414.64 633.73c-8.76 0-16.32 5.67-19.2 13.6h6c2.4-4.87 7.44-8.2 13.2-8.2 8.28 0 15 6.75 15 15.03s-6.72 15.03-15 15.03c-4.56 0-8.76-2.17-11.52-5.5h-6.48c3.48 6.48 10.2 10.9 18 10.9 11.28 0 20.4-9.2 20.4-20.44 0-11.25-9.12-20.43-20.4-20.43zM340 677.38h35.28v-5.5H340v5.5zm0-40.95h35.28v-5.5H340v5.5zm0 21.78h73.32v-5.4H340v5.4zm113.64 26.65l-13.68-12.42c-1.08 1.62-2.4 3.06-3.84 4.4l13.56 12.34c1.2 1.08 3.12 1 4.2-.27.96-1.17.96-2.97-.24-4.05zm4.2 7.74c-1.56 1.8-3.84 2.78-6.12 2.78-2.04 0-4.08-.72-5.64-2.16l-14.16-12.87c-5.04 3.24-10.92 5.13-17.28 5.13-13.92 0-25.68-9.18-29.76-21.78h5.88c3.72 9.54 13.08 16.38 23.88 16.38 14.28 0 25.8-11.6 25.8-25.92 0-14.3-11.52-25.92-25.8-25.92-11.88 0-21.84 8.1-24.84 19.08h-5.64c3.12-14.04 15.6-24.48 30.48-24.48 17.28 0 31.2 14.04 31.2 31.32 0 4.86-1.08 9.45-3 13.5l14.4 13.14c3.48 3.06 3.72 8.37.6 11.8zM340 699.15h51.6v-5.5H340v5.5zm0-84.5h57v-5.5h-57v5.5z" stroke="#000" stroke-opacity="0" fill="#e7157b"/><use xlink:href="#E" transform="matrix(1,0,0,1,310,708.156) translate(3.2052951388888857 21.52777777777778)"/><use xlink:href="#F" transform="matrix(1,0,0,1,310,708.156) translate(137.27647569444446 21.52777777777778)"/><use xlink:href="#y" transform="matrix(1,0,0,1,310,708.156) translate(57.67578125 53.79340277777778)"/><path d="M400 561.5v29.15" stroke="#3a414a" stroke-width="2" fill="none"/><path d="M400.98 561.53h-1.96v-1.03h1.96z" stroke="#3a414a" stroke-width=".05" fill="#3a414a"/><path d="M400 605.92l-4.63-14.27h9.26z" stroke="#3a414a" stroke-width="2" fill="#3a414a"/><path d="M400.98 421h-1.96v-44.63h1.96zm0-61.63h-1.96V350h1.96z" stroke="#3a414a" stroke-width=".05" fill="#3a414a"/><path d="M400.98 350.03h-1.96v-2.08L400 349l.98-1.06z" fill="#3a414a"/><path stroke="#3a414a" stroke-width=".05" fill="#3a414a"/><path d="M400 436.26L395.37 422h9.26z" fill="#3a414a"/><path d="M400 439.42l-5.98-18.4h11.96zm-3.3-16.45l3.3 10.14 3.3-10.13z" stroke="#3a414a" stroke-width=".05" fill="#3a414a"/><path d="M900 426a6 6 0 0 1 6-6h148a6 6 0 0 1 6 6v148a6 6 0 0 1-6 6H906a6 6 0 0 1-6-6z" stroke="#3a414a" stroke-width="3" fill="#fff"/><use xlink:href="#G" transform="matrix(1,0,0,1,905,425) translate(5.0615234375 67.375)"/><use xlink:href="#H" transform="matrix(1,0,0,1,905,425) translate(38.91357421875 98.833984375)"/><path d="M-185 441h120v120h-120V441z" stroke="#000" stroke-opacity="0" fill="url(#I)"/><path d="M-143.74 517.92h35.67v-33.84h-35.67v33.84zm39.38-33.84h5.6v3.8h-5.6v3.7h5.6v3.8h-5.6v3.72h5.6v3.8h-5.6v5.6h5.6v3.73h-5.6v3.8h5.6v3.7h-5.85c-.5 1.17-1.58 1.9-2.9 1.9h-.58v5.62h-3.8v-5.6h-3.7v5.6h-3.8v-5.6h-3.72v5.6h-3.8v-5.6h-3.7v5.6h-3.8v-5.6h-5.63v5.6h-3.7v-5.6h-.67c-1.32 0-2.4-.75-2.9-1.9h-3.95v-3.72h3.7v-3.8h-3.7v-3.72h3.7v-5.6h-3.7v-3.8h3.7v-3.7h-3.7v-3.8h3.7v-3.73h-3.7v-3.8h3.7v-.57c0-1.74 1.42-3.14 3.15-3.14h.66v-5.6h3.7v5.6h5.63v-5.6h3.8v5.6h3.7v-5.6h3.8v5.6h3.7v-5.6h3.8v5.6h3.73v-5.6h3.8v5.6h.57c1.74 0 3.14 1.4 3.14 3.14v.57zm-20.64 54.5h-37.56V501h7.5v-3.7h-7.75c-1.9 0-3.48 1.47-3.48 3.37v38.14c0 1.9 1.57 3.48 3.47 3.48h38.13c1.9 0 3.4-1.57 3.4-3.47l-.02-7.75h-3.7v7.52zm41.28-75.4v38.15c0 1.9-1.57 3.38-3.47 3.38h-7.75V501h7.52v-37.56H-125v7.5h-3.72v-7.75c0-1.9 1.5-3.48 3.4-3.48h38.13c1.9 0 3.48 1.57 3.48 3.47z" stroke="#000" stroke-opacity="0" fill="#fff"/><use xlink:href="#J" transform="matrix(1,0,0,1,-215,570) translate(27.3828125 25.833333333333336)"/><use xlink:href="#K" transform="matrix(1,0,0,1,-215,570) translate(64.11458333333333 58.098958333333336)"/><path d="M761 500h119" stroke="#3a414a" stroke-width="2" fill="none"/><path d="M761.03 500.98h-1.07l.04-.98-.03-.98h1.06z" stroke="#3a414a" stroke-width=".05" fill="#3a414a"/><path d="M895.26 500L881 504.63v-9.26z" stroke="#3a414a" stroke-width="2" fill="#3a414a"/><path d="M-372.4 460.92c0-8.04 6.6-14.52 14.76-14.52 8.04 0 14.64 6.48 14.64 14.52 0 7.92-6.6 14.4-14.64 14.4-8.16 0-14.76-6.48-14.76-14.4zm31.44 19.2c-1.68-1.08-3.6-2.04-5.52-2.76 5.4-3.6 8.88-9.6 8.88-16.44 0-11.04-9-19.92-20.04-19.92-11.16 0-20.16 8.88-20.16 19.92 0 6.84 3.48 12.84 8.88 16.44-3.48 1.32-6.72 3.24-9.72 5.76l3.6 4.08c4.92-4.2 11.04-6.48 17.28-6.48 4.92 0 9.72 1.44 13.92 3.96 7.56 4.68 12.48 12.84 13.2 21.72h-27.12v5.52h30c1.56 0 2.76-1.2 2.76-2.76 0-11.88-6.12-22.92-15.96-29.04zm-85.92-19.2c0-8.04 6.6-14.52 14.64-14.52 8.16 0 14.64 6.48 14.64 14.52 0 7.92-6.48 14.4-14.64 14.4-8.04 0-14.64-6.48-14.64-14.4zm14.64 45.48h-27.12c1.32-14.4 12.96-25.68 27.12-25.68 4.92 0 9.72 1.44 13.92 3.96 1.2.84 2.28 1.56 3.36 2.52l3.6-4.08c-1.32-1.2-2.64-2.16-4.08-3-1.8-1.08-3.6-2.04-5.52-2.76 5.28-3.6 8.88-9.6 8.88-16.44 0-11.04-9-19.92-20.16-19.92-11.04 0-20.16 8.88-20.16 19.92 0 6.84 3.6 12.84 9 16.44-12.6 4.8-21.6 17.16-21.6 31.8 0 1.56 1.2 2.76 2.76 2.76h30v-5.52zm.12 49.2c1.32-14.52 12.96-25.8 27.12-25.8 4.92 0 9.72 1.44 13.92 3.96 7.44 4.68 12.36 12.84 13.2 21.84h-54.24zm12.48-45.6c0-8.04 6.6-14.4 14.64-14.4 8.16 0 14.76 6.36 14.76 14.4 0 7.92-6.6 14.4-14.76 14.4-8.04 0-14.64-6.48-14.64-14.4zm31.44 19.2c-1.8-1.08-3.6-2.04-5.52-2.76 5.4-3.6 8.88-9.6 8.88-16.44 0-11.04-9-19.92-20.16-19.92-11.04 0-20.04 8.88-20.04 19.92 0 6.84 3.48 12.84 8.88 16.44-12.6 4.8-21.6 17.16-21.6 31.8 0 1.56 1.2 2.76 2.76 2.76h60c1.56 0 2.76-1.2 2.76-2.76 0-11.76-6.12-22.92-15.96-29.04z" stroke="#000" stroke-opacity="0" fill="#232f3e"/><g><use xlink:href="#L" transform="matrix(1,0,0,1,-475,570) translate(56.27549913194444 23.680555555555557)"/></g><path d="M-324 501h120.5" stroke="#3a414a" stroke-width="2" fill="none"/><path d="M-323.97 501.98h-1.88l-.5-1.96h2.38z" stroke="#3a414a" stroke-width=".05" fill="#3a414a"/><path d="M-188.24 501l-14.26 4.63v-9.26z" stroke="#3a414a" stroke-width="2" fill="#3a414a"/><path d="M-64 501h44.69a6 6 0 0 0 6-6V323.66a6 6 0 0 1 6-6h328.8" stroke="#3a414a" stroke-width="2" fill="none"/><path d="M-63.97 501.98H-65v-1.96h1.03z" stroke="#3a414a" stroke-width=".05" fill="#3a414a"/><path d="M336.76 317.66l-14.26 4.64v-9.27z" stroke="#3a414a" stroke-width="2" fill="#3a414a"/><path d="M60 440h120v120H60V440z" stroke="#fff" stroke-opacity="0" stroke-width="2" fill="#d6242d"/><path d="M138.13 520.44l2.27-2.27 19.13 19.12-2.27 2.26-19.13-19.12zM80.47 462.74l2.25-2.25 21.2 21.2-2.24 2.25-21.2-21.2zM85.27 532.56l11.2-11.2 2.26 2.26-11.2 11.2-2.26-2.26zM141.27 476.54l11.2-11.2 2.26 2.27-11.2 11.2-2.26-2.26z" stroke="#fff" stroke-opacity="0" stroke-width="1.41" fill="#fff"/><path d="M156.74 498.43c-.32-7.5-2.5-13.83-6.9-19.9l-2.6 1.9c4 5.5 5.98 11.2 6.3 18h-3.2v3.2h3.2c-.28 6.83-2.27 12.56-6.3 18.12l2.6 1.85c4.42-6.12 6.62-12.45 6.9-20h3.2v-3.22zM100.34 472.83c5.53-4 11.24-6 18.06-6.28v3.08h3.2v-3.08c6.82.3 12.53 2.28 18.06 6.28l1.94-2.6c-6.13-4.4-12.44-6.6-20-6.88v-3.32h-3.2v3.32c-7.56.28-13.87 2.47-20 6.88zM139.66 527.33c-5.53 4-11.24 6-18.06 6.3v-3.22h-3.2v3.22c-6.82-.3-12.53-2.3-18.06-6.3l-1.94 2.6c6.13 4.42 12.44 6.6 20 6.9v3.2h3.2v-3.2c7.56-.3 13.87-2.48 20-6.9zM90.16 521.6l2.6-1.9c-4.03-5.5-6.02-11.25-6.3-18.1h3.2v-3.2h-3.2c.32-6.8 2.3-12.5 6.3-18l-2.6-1.9c-4.4 6.07-6.58 12.4-6.9 19.9h-3.2v3.2h3.2c.28 7.54 2.48 13.88 6.9 20zM127.84 478.8c-2.3-1.9-4.86-2.8-7.84-2.77-6.18 0-11.2 4.36-11.2 9.76v7.8h-3.2c-.9 0-1.6.75-1.6 1.6v22.43c0 .44.16.82.48 1.13.3.3.67.47 1.12.47h28.8c.9 0 1.6-.73 1.6-1.6V495.2c0-.42-.16-.76-.45-1.07-.32-.34-.7-.52-1.15-.52h-3.2v-7.8c-.03-2.8-1.18-5.23-3.36-7zm-15.84 7c0-3.63 3.62-6.57 8-6.57 2.18-.05 4.06.6 5.76 1.98 1.44 1.18 2.2 2.74 2.27 4.6v7.8h-16zm20.8 15.85H128v3.2h4.8v3.2H128v3.2h4.8v4.78h-25.6V496.8h25.6z" stroke="#fff" stroke-opacity="0" stroke-width="2" fill="#fff"/><path d="M118.4 508.4v4.43h3.2v-4.42c1.35-.47 2.3-1.43 2.8-2.8.9-2.43-.37-5.12-2.8-6-2.43-.87-5.13.38-6 2.8-.9 2.45.37 5.14 2.8 6zm1.6-6.1c.96 0 1.73.76 1.74 1.72 0 .95-.75 1.73-1.7 1.75-.96 0-1.75-.76-1.76-1.72V504c0-.94.78-1.7 1.72-1.7z" stroke="#fff" stroke-opacity="0" stroke-width="2" fill="#fff"/><g><use xlink:href="#G" transform="matrix(1,0,0,1,30,569) translate(20.0615234375 25.1875)"/><use xlink:href="#M" transform="matrix(1,0,0,1,30,569) translate(50.14306640625 56.646484375)"/></g><path d="M181 500h9.83m9.84 0h19.66m9.83 0H240" stroke="#3a414a" stroke-width="2" fill="none"/><path d="M181.03 500.98H180v-1.96h1.03z" stroke="#3a414a" stroke-width=".05" fill="#3a414a"/><path d="M255.26 500L241 504.63v-9.26z" stroke="#3a414a" stroke-width="2" fill="#3a414a"/><defs><path d="M783 20c-382 0-661-292-661-764 0-473 279-766 661-766 302 0 548 182 601 489h-190c-42-204-217-313-411-313-268 0-476 208-476 590 0 381 209 588 476 588 195 0 369-110 411-313h190c-52 303-296 489-601 489" id="N"/><path d="M645 0H180v-1490h484c435 0 692 280 692 742 0 466-257 748-711 748zM370-168h263c363 0 539-218 539-580 0-358-176-574-521-574H370v1154" id="O"/><g id="a"><use transform="matrix(0.010850694444444444,0,0,0.010850694444444444,0,0)" xlink:href="#N"/><use transform="matrix(0.010850694444444444,0,0,0.010850694444444444,16.23263888888889,0)" xlink:href="#O"/><use transform="matrix(0.010850694444444444,0,0,0.010850694444444444,32.26996527777778,0)" xlink:href="#N"/></g><path d="M471 26C259 26 90-98 90-318c0-256 228-303 435-329 202-27 287-16 287-108 0-139-79-219-234-219-161 0-248 86-283 164l-173-57c86-203 278-265 451-265 150 0 419 46 419 395V0H815v-152h-12C765-73 660 26 471 26zm31-159c199 0 310-134 310-271v-155c-30 35-226 55-295 64-131 17-246 59-246 186 0 116 97 176 231 176" id="P"/><path d="M613 24c-304 0-509-231-509-576 0-350 205-580 509-580 216 0 392 114 453 309l-173 49c-33-115-133-197-280-197-223 0-326 196-326 419 0 220 103 415 326 415 150 0 252-85 285-206l172 49C1010-95 832 24 613 24" id="Q"/><path d="M613 24c-304 0-509-231-509-576 0-350 205-580 509-580 305 0 511 230 511 580 0 345-206 576-511 576zm0-161c226 0 329-195 329-415 0-222-103-419-329-419-223 0-326 196-326 419 0 220 103 415 326 415" id="R"/><path d="M537 14c-226 0-379-139-379-422v-710h180v695c0 172 97 275 253 275 160 0 281-109 281-300v-670h181V0H879v-209C806-46 684 14 537 14" id="S"/><path d="M338-670V0H158v-1118h173l1 207c72-158 192-221 342-221 226 0 378 139 378 422V0H872v-695c0-172-96-275-252-275-161 0-282 109-282 300" id="T"/><path d="M598-1118v154H368v674c0 100 37 144 132 144 23 0 62-6 92-12L629-6c-37 13-88 20-134 20-193 0-307-107-307-290v-688H20v-154h168v-266h180v266h230" id="U"/><g id="b"><use transform="matrix(0.010850694444444444,0,0,0.010850694444444444,0,0)" xlink:href="#P"/><use transform="matrix(0.010850694444444444,0,0,0.010850694444444444,12.47829861111111,0)" xlink:href="#Q"/><use transform="matrix(0.010850694444444444,0,0,0.010850694444444444,25.17361111111111,0)" xlink:href="#Q"/><use transform="matrix(0.010850694444444444,0,0,0.010850694444444444,37.868923611111114,0)" xlink:href="#R"/><use transform="matrix(0.010850694444444444,0,0,0.010850694444444444,51.1935763888889,0)" xlink:href="#S"/><use transform="matrix(0.010850694444444444,0,0,0.010850694444444444,64.33376736111111,0)" xlink:href="#T"/><use transform="matrix(0.010850694444444444,0,0,0.010850694444444444,77.46310763888889,0)" xlink:href="#U"/></g><path d="M600 0L52-1490h200c166 485 304 806 458 1336 156-533 285-846 449-1336h202L819 0H600" id="V"/><path d="M180 0v-1490h510c348 0 508 209 508 474 0 266-160 477-507 477H370V0H180zm190-706h312c236 0 327-133 327-310 0-176-91-307-329-307H370v617" id="W"/><g id="c"><use transform="matrix(0.01193576388888889,0,0,0.01193576388888889,0,0)" xlink:href="#V"/><use transform="matrix(0.01193576388888889,0,0,0.01193576388888889,16.865234375,0)" xlink:href="#W"/><use transform="matrix(0.01193576388888889,0,0,0.01193576388888889,32.47721354166667,0)" xlink:href="#N"/></g><path d="M158 0v-1118h174v172h12c41-113 157-188 290-188 26 0 70 2 91 3v181c-11-2-60-10-108-10-161 0-279 109-279 260V0H158" id="X"/><path d="M577 24c-279 0-473-224-473-580 0-354 195-576 474-576 218 0 287 134 324 193h14v-551h180V0H922v-173h-20C865-111 790 24 577 24zm27-161c203 0 314-172 314-421 0-247-108-413-314-413-212 0-317 181-317 413 0 235 108 421 317 421" id="Y"/><path d="M158 0v-1118h180V0H158zm91-1301c-68 0-125-53-125-119s57-119 125-119c69 0 126 53 126 119s-57 119-126 119" id="Z"/><g id="d"><use transform="matrix(0.010850694444444444,0,0,0.010850694444444444,0,0)" xlink:href="#W"/><use transform="matrix(0.010850694444444444,0,0,0.010850694444444444,14.192708333333332,0)" xlink:href="#X"/><use transform="matrix(0.010850694444444444,0,0,0.010850694444444444,22.189670138888886,0)" xlink:href="#R"/><use transform="matrix(0.010850694444444444,0,0,0.010850694444444444,35.514322916666664,0)" xlink:href="#Y"/><use transform="matrix(0.010850694444444444,0,0,0.010850694444444444,49.12109375,0)" xlink:href="#S"/><use transform="matrix(0.010850694444444444,0,0,0.010850694444444444,62.26128472222222,0)" xlink:href="#Q"/><use transform="matrix(0.010850694444444444,0,0,0.010850694444444444,74.95659722222223,0)" xlink:href="#U"/><use transform="matrix(0.010850694444444444,0,0,0.010850694444444444,82.2265625,0)" xlink:href="#Z"/><use transform="matrix(0.010850694444444444,0,0,0.010850694444444444,87.60850694444444,0)" xlink:href="#R"/><use transform="matrix(0.010850694444444444,0,0,0.010850694444444444,100.93315972222221,0)" xlink:href="#T"/></g><path d="M657 26c-323 0-524-166-541-416h195c15 169 171 246 346 246 202 0 356-106 356-265 5-203-294-238-475-293-239-73-380-191-380-389 0-252 224-419 512-419 294 0 499 171 508 396H992c-17-145-151-228-328-228-193 0-321 102-321 242 0 156 175 211 284 241l149 41c160 44 422 134 422 412 0 244-197 432-541 432" id="aa"/><path d="M538 24C308 24 148-78 108-271l171-41c32 123 123 178 257 178 156 0 256-77 256-169 0-77-54-128-164-154l-186-44c-203-48-300-148-300-305 0-192 176-326 414-326 230 0 351 112 402 269l-163 42c-31-80-94-158-238-158-133 0-233 69-233 162 0 83 57 129 188 160l169 40c203 48 298 149 298 302 0 196-179 339-441 339" id="ab"/><g id="e"><use transform="matrix(0.010850694444444444,0,0,0.010850694444444444,0,0)" xlink:href="#aa"/><use transform="matrix(0.010850694444444444,0,0,0.010850694444444444,14.2578125,0)" xlink:href="#U"/><use transform="matrix(0.010850694444444444,0,0,0.010850694444444444,21.63628472222222,0)" xlink:href="#P"/><use transform="matrix(0.010850694444444444,0,0,0.010850694444444444,34.11458333333333,0)" xlink:href="#U"/><use transform="matrix(0.010850694444444444,0,0,0.010850694444444444,41.38454861111111,0)" xlink:href="#Z"/><use transform="matrix(0.010850694444444444,0,0,0.010850694444444444,46.76649305555556,0)" xlink:href="#ab"/><use transform="matrix(0.010850694444444444,0,0,0.010850694444444444,58.496093749999986,0)" xlink:href="#U"/><use transform="matrix(0.010850694444444444,0,0,0.010850694444444444,65.76605902777777,0)" xlink:href="#Z"/><use transform="matrix(0.010850694444444444,0,0,0.010850694444444444,71.14800347222221,0)" xlink:href="#Q"/><use transform="matrix(0.010850694444444444,0,0,0.010850694444444444,83.84331597222221,0)" xlink:href="#ab"/></g><g id="f"><use transform="matrix(0.010850694444444444,0,0,0.010850694444444444,0,0)" xlink:href="#P"/><use transform="matrix(0.010850694444444444,0,0,0.010850694444444444,12.47829861111111,0)" xlink:href="#Q"/><use transform="matrix(0.010850694444444444,0,0,0.010850694444444444,25.17361111111111,0)" xlink:href="#Q"/><use transform="matrix(0.010850694444444444,0,0,0.010850694444444444,37.868923611111114,0)" xlink:href="#R"/><use transform="matrix(0.010850694444444444,0,0,0.010850694444444444,51.1935763888889,0)" xlink:href="#S"/><use transform="matrix(0.010850694444444444,0,0,0.010850694444444444,64.33376736111111,0)" xlink:href="#T"/><use transform="matrix(0.010850694444444444,0,0,0.010850694444444444,77.46310763888889,0)" xlink:href="#U"/></g><g id="g"><use transform="matrix(0.008173828125000001,0,0,0.008173828125000001,0,0)" xlink:href="#V"/><use transform="matrix(0.008173828125000001,0,0,0.008173828125000001,11.549619140625001,0)" xlink:href="#W"/><use transform="matrix(0.008173828125000001,0,0,0.008173828125000001,22.240986328125004,0)" xlink:href="#N"/></g><path d="M180 0v-1490h908v168H370v486h669v168H370v500h727V0H180" id="ac"/><path d="M158 418v-1536h174v179h20c37-59 106-193 324-193 279 0 474 222 474 576 0 356-194 580-473 580-213 0-288-135-325-197h-14v591H158zm492-555c209 0 317-186 317-421 0-232-105-413-317-413-206 0-314 166-314 413 0 249 111 421 314 421" id="ad"/><g id="h"><use transform="matrix(0.008173828125000001,0,0,0.008173828125000001,0,0)" xlink:href="#ac"/><use transform="matrix(0.008173828125000001,0,0,0.008173828125000001,10.061982421875001,0)" xlink:href="#T"/><use transform="matrix(0.008173828125000001,0,0,0.008173828125000001,19.952314453125002,0)" xlink:href="#Y"/><use transform="matrix(0.008173828125000001,0,0,0.008173828125000001,30.202294921875,0)" xlink:href="#ad"/><use transform="matrix(0.008173828125000001,0,0,0.008173828125000001,40.452275390625005,0)" xlink:href="#R"/><use transform="matrix(0.008173828125000001,0,0,0.008173828125000001,50.489736328125005,0)" xlink:href="#Z"/><use transform="matrix(0.008173828125000001,0,0,0.008173828125000001,54.54395507812501,0)" xlink:href="#T"/><use transform="matrix(0.008173828125000001,0,0,0.008173828125000001,64.434287109375,0)" xlink:href="#U"/><use transform="matrix(0.008173828125000001,0,0,0.008173828125000001,69.747275390625,0)" xlink:href="#ab"/></g><path d="M180 0v-1490h270l367 940c28 72 75 218 110 339 35-117 81-264 110-339l362-940h271V0h-187c2-448-5-837 7-1287-157 497-311 829-483 1287H842C666-458 514-784 354-1284c12 438 5 843 7 1284H180" id="ae"/><path d="M180 0v-1490h190c0 262 1 526-3 784 217-279 467-523 702-784h249L716-845 1319 0h-225L585-716 370-489V0H180" id="af"/><g id="i"><use transform="matrix(0.008173828125000001,0,0,0.008173828125000001,0,0)" xlink:href="#ae"/><use transform="matrix(0.008173828125000001,0,0,0.008173828125000001,15.121582031250002,0)" xlink:href="#aa"/><use transform="matrix(0.008173828125000001,0,0,0.008173828125000001,25.861992187500004,0)" xlink:href="#af"/></g><path d="M628 24c-324 0-524-230-524-574 0-343 198-582 503-582 237 0 487 146 487 559v75H286c9 234 145 362 343 362 132 0 231-58 273-172l174 48C1024-91 857 24 628 24zM287-650h624c-17-190-120-322-304-322-192 0-309 151-320 322" id="ag"/><g id="j"><use transform="matrix(0.008173828125000001,0,0,0.008173828125000001,0,0)" xlink:href="#N"/><use transform="matrix(0.008173828125000001,0,0,0.008173828125000001,12.228046875000002,0)" xlink:href="#R"/><use transform="matrix(0.008173828125000001,0,0,0.008173828125000001,22.265507812500008,0)" xlink:href="#T"/><use transform="matrix(0.008173828125000001,0,0,0.008173828125000001,32.15583984375,0)" xlink:href="#T"/><use transform="matrix(0.008173828125000001,0,0,0.008173828125000001,42.046171875,0)" xlink:href="#ag"/><use transform="matrix(0.008173828125000001,0,0,0.008173828125000001,51.80572265625,0)" xlink:href="#Q"/><use transform="matrix(0.008173828125000001,0,0,0.008173828125000001,61.3691015625,0)" xlink:href="#U"/></g><path d="M158 0v-1118h175l1 205c55-151 181-225 313-225 147 0 245 90 285 228 53-141 190-228 352-228 194 0 352 125 352 384V0h-181v-749c0-161-105-225-225-225-151 0-243 103-243 244V0H807v-767c0-124-93-207-219-207-131 0-250 92-250 270V0H158" id="ah"/><path d="M140 405l46-156c120 36 205 19 263-150l32-93L54-1118h197c107 313 237 620 324 950 87-331 219-637 326-950h196L606 167c-68 178-176 259-334 259-64 0-113-12-132-21" id="ai"/><path d="M1096 418H916v-591h-14C865-111 790 24 577 24c-279 0-473-224-473-580 0-354 195-576 474-576 218 0 287 134 324 193h20v-179h174V418zM604-137c203 0 314-172 314-421 0-247-108-413-314-413-212 0-317 181-317 413 0 235 108 421 317 421" id="aj"/><path d="M798-719v166H144v-166h654" id="ak"/><path d="M158 0v-1490h180v865h22l478-493h223L593-638 1096 0H865L456-523 338-412V0H158" id="al"/><path d="M678-1118v154H420V0H240v-964H20v-154h220v-149c0-194 155-293 318-293 85 0 141 18 168 30l-50 154c-19-6-47-17-97-17-111 0-159 58-159 166v109h258" id="am"/><g id="k"><use transform="matrix(0.0126953125,0,0,0.0126953125,0,0)" xlink:href="#ah"/><use transform="matrix(0.0126953125,0,0,0.0126953125,22.39453125,0)" xlink:href="#ai"/><use transform="matrix(0.0126953125,0,0,0.0126953125,37.0068359375,0)" xlink:href="#ab"/><use transform="matrix(0.0126953125,0,0,0.0126953125,50.73046875,0)" xlink:href="#aj"/><use transform="matrix(0.0126953125,0,0,0.0126953125,66.650390625,0)" xlink:href="#ak"/><use transform="matrix(0.0126953125,0,0,0.0126953125,78.609375,0)" xlink:href="#U"/><use transform="matrix(0.0126953125,0,0,0.0126953125,86.861328125,0)" xlink:href="#R"/><use transform="matrix(0.0126953125,0,0,0.0126953125,102.451171875,0)" xlink:href="#ak"/><use transform="matrix(0.0126953125,0,0,0.0126953125,114.41015625,0)" xlink:href="#al"/><use transform="matrix(0.0126953125,0,0,0.0126953125,128.6796875,0)" xlink:href="#P"/><use transform="matrix(0.0126953125,0,0,0.0126953125,143.279296875,0)" xlink:href="#am"/><use transform="matrix(0.0126953125,0,0,0.0126953125,152.90234375,0)" xlink:href="#al"/><use transform="matrix(0.0126953125,0,0,0.0126953125,167.171875,0)" xlink:href="#P"/></g><g id="l"><use transform="matrix(0.0126953125,0,0,0.0126953125,0,0)" xlink:href="#Q"/><use transform="matrix(0.0126953125,0,0,0.0126953125,14.853515625,0)" xlink:href="#R"/><use transform="matrix(0.0126953125,0,0,0.0126953125,30.443359375,0)" xlink:href="#T"/><use transform="matrix(0.0126953125,0,0,0.0126953125,45.8046875,0)" xlink:href="#T"/><use transform="matrix(0.0126953125,0,0,0.0126953125,61.166015625,0)" xlink:href="#ag"/><use transform="matrix(0.0126953125,0,0,0.0126953125,76.32421875,0)" xlink:href="#Q"/><use transform="matrix(0.0126953125,0,0,0.0126953125,91.177734375,0)" xlink:href="#U"/><use transform="matrix(0.0126953125,0,0,0.0126953125,99.4296875,0)" xlink:href="#R"/><use transform="matrix(0.0126953125,0,0,0.0126953125,115.01953125,0)" xlink:href="#X"/></g><path d="M338-1490V0H158v-1490h180" id="an"/><path d="M338-670V0H158v-1490h180v566c73-149 190-208 336-208 226 0 379 139 379 422V0H872v-695c0-172-96-275-252-275-161 0-282 109-282 300" id="ao"/><g id="m"><use transform="matrix(0.0126953125,0,0,0.0126953125,0,0)" xlink:href="#al"/><use transform="matrix(0.0126953125,0,0,0.0126953125,14.26953125,0)" xlink:href="#P"/><use transform="matrix(0.0126953125,0,0,0.0126953125,28.869140625,0)" xlink:href="#am"/><use transform="matrix(0.0126953125,0,0,0.0126953125,38.4921875,0)" xlink:href="#al"/><use transform="matrix(0.0126953125,0,0,0.0126953125,52.76171875,0)" xlink:href="#P"/><use transform="matrix(0.0126953125,0,0,0.0126953125,67.361328125,0)" xlink:href="#ak"/><use transform="matrix(0.0126953125,0,0,0.0126953125,79.3203125,0)" xlink:href="#U"/><use transform="matrix(0.0126953125,0,0,0.0126953125,87.572265625,0)" xlink:href="#R"/><use transform="matrix(0.0126953125,0,0,0.0126953125,103.162109375,0)" xlink:href="#ak"/><use transform="matrix(0.0126953125,0,0,0.0126953125,115.12109375,0)" xlink:href="#Q"/><use transform="matrix(0.0126953125,0,0,0.0126953125,129.974609375,0)" xlink:href="#an"/><use transform="matrix(0.0126953125,0,0,0.0126953125,136.271484375,0)" xlink:href="#Z"/><use transform="matrix(0.0126953125,0,0,0.0126953125,142.568359375,0)" xlink:href="#Q"/><use transform="matrix(0.0126953125,0,0,0.0126953125,157.421875,0)" xlink:href="#al"/><use transform="matrix(0.0126953125,0,0,0.0126953125,171.69140625,0)" xlink:href="#ao"/><use transform="matrix(0.0126953125,0,0,0.0126953125,187.0654296875,0)" xlink:href="#R"/><use transform="matrix(0.0126953125,0,0,0.0126953125,202.6552734375,0)" xlink:href="#S"/><use transform="matrix(0.0126953125,0,0,0.0126953125,218.029296875,0)" xlink:href="#ab"/><use transform="matrix(0.0126953125,0,0,0.0126953125,231.7529296875,0)" xlink:href="#ag"/></g><g id="n"><use transform="matrix(0.0126953125,0,0,0.0126953125,0,0)" xlink:href="#ae"/><use transform="matrix(0.0126953125,0,0,0.0126953125,23.486328125,0)" xlink:href="#aa"/><use transform="matrix(0.0126953125,0,0,0.0126953125,40.16796875,0)" xlink:href="#af"/></g><path d="M784 20c-382 0-662-292-662-764 0-473 280-766 662-766s660 293 660 766c0 282-99 499-260 629l192 255h-198L1049-33C969 2 880 20 784 20zm-62-486h198l156 205c112-98 183-261 183-483 0-383-209-590-475-590-268 0-477 208-477 590 0 380 209 588 477 588 54 0 106-9 154-25" id="ap"/><path d="M180 0v-1490h190v1322h690V0H180" id="aq"/><g id="o"><use transform="matrix(0.0126953125,0,0,0.0126953125,0,0)" xlink:href="#ae"/><use transform="matrix(0.0126953125,0,0,0.0126953125,23.61328125,0)" xlink:href="#ai"/><use transform="matrix(0.0126953125,0,0,0.0126953125,38.2255859375,0)" xlink:href="#aa"/><use transform="matrix(0.0126953125,0,0,0.0126953125,54.9072265625,0)" xlink:href="#ap"/><use transform="matrix(0.0126953125,0,0,0.0126953125,74.7880859375,0)" xlink:href="#aq"/></g><path d="M180 0v-1490h510c348 0 508 194 508 460 0 198-88 351-276 417L1256 0h-220L726-579c-117 2-238 0-356 1V0H180zm190-747h312c235 0 327-108 327-283 0-177-92-293-329-293H370v576" id="ar"/><g id="p"><use transform="matrix(0.0126953125,0,0,0.0126953125,0,0)" xlink:href="#ar"/><use transform="matrix(0.0126953125,0,0,0.0126953125,16.732421875,0)" xlink:href="#O"/><use transform="matrix(0.0126953125,0,0,0.0126953125,35.49609375,0)" xlink:href="#aa"/></g><g id="q"><use transform="matrix(0.0126953125,0,0,0.0126953125,0,0)" xlink:href="#ae"/><use transform="matrix(0.0126953125,0,0,0.0126953125,23.61328125,0)" xlink:href="#ai"/><use transform="matrix(0.0126953125,0,0,0.0126953125,38.2255859375,0)" xlink:href="#aa"/><use transform="matrix(0.0126953125,0,0,0.0126953125,54.9072265625,0)" xlink:href="#ap"/><use transform="matrix(0.0126953125,0,0,0.0126953125,74.7880859375,0)" xlink:href="#aq"/></g><path d="M784 20c-382 0-662-292-662-764 0-473 280-766 662-766s660 293 660 766c0 472-278 764-660 764zm0-176c266 0 475-207 475-588 0-383-209-590-475-590-268 0-477 208-477 590 0 380 209 588 477 588" id="as"/><g id="r"><use transform="matrix(0.0126953125,0,0,0.0126953125,0,0)" xlink:href="#ar"/><use transform="matrix(0.0126953125,0,0,0.0126953125,16.3515625,0)" xlink:href="#ag"/><use transform="matrix(0.0126953125,0,0,0.0126953125,31.763671875,0)" xlink:href="#P"/><use transform="matrix(0.0126953125,0,0,0.0126953125,46.36328125,0)" xlink:href="#Y"/><use transform="matrix(0.0126953125,0,0,0.0126953125,62.283203125,0)" xlink:href="#as"/><use transform="matrix(0.0126953125,0,0,0.0126953125,82.1640625,0)" xlink:href="#T"/><use transform="matrix(0.0126953125,0,0,0.0126953125,97.525390625,0)" xlink:href="#an"/><use transform="matrix(0.0126953125,0,0,0.0126953125,103.94921875,0)" xlink:href="#ai"/></g><g id="s"><use transform="matrix(0.0126953125,0,0,0.0126953125,0,0)" xlink:href="#N"/><use transform="matrix(0.0126953125,0,0,0.0126953125,18.9921875,0)" xlink:href="#X"/><use transform="matrix(0.0126953125,0,0,0.0126953125,28.3486328125,0)" xlink:href="#ag"/><use transform="matrix(0.0126953125,0,0,0.0126953125,43.5068359375,0)" xlink:href="#Y"/><use transform="matrix(0.0126953125,0,0,0.0126953125,59.4267578125,0)" xlink:href="#ab"/></g><g id="t"><use transform="matrix(0.0126953125,0,0,0.0126953125,0,0)" xlink:href="#V"/><use transform="matrix(0.0126953125,0,0,0.0126953125,17.9384765625,0)" xlink:href="#W"/><use transform="matrix(0.0126953125,0,0,0.0126953125,34.5439453125,0)" xlink:href="#N"/></g><path d="M611 442c-248 0-391-105-460-228l146-94c47 65 117 165 314 165 178 0 307-82 307-266v-224h-17C863-141 792-18 576-18c-268 0-472-195-472-546 0-346 197-568 476-568 216 0 288 133 326 193h17v-179h175V29c0 289-215 413-487 413zm-5-620c203 0 314-146 314-390 0-237-108-403-314-403-213 0-319 180-319 403 0 230 109 390 319 390" id="at"/><g id="u"><use transform="matrix(0.0126953125,0,0,0.0126953125,0,0)" xlink:href="#ad"/><use transform="matrix(0.0126953125,0,0,0.0126953125,15.919921875,0)" xlink:href="#ag"/><use transform="matrix(0.0126953125,0,0,0.0126953125,31.078125,0)" xlink:href="#ag"/><use transform="matrix(0.0126953125,0,0,0.0126953125,46.236328125,0)" xlink:href="#X"/><use transform="matrix(0.0126953125,0,0,0.0126953125,56.4306640625,0)" xlink:href="#Z"/><use transform="matrix(0.0126953125,0,0,0.0126953125,62.7275390625,0)" xlink:href="#T"/><use transform="matrix(0.0126953125,0,0,0.0126953125,78.0888671875,0)" xlink:href="#at"/></g><g id="v"><use transform="matrix(0.0126953125,0,0,0.0126953125,0,0)" xlink:href="#W"/><use transform="matrix(0.0126953125,0,0,0.0126953125,16.4658203125,0)" xlink:href="#ag"/><use transform="matrix(0.0126953125,0,0,0.0126953125,31.6240234375,0)" xlink:href="#ag"/><use transform="matrix(0.0126953125,0,0,0.0126953125,46.7822265625,0)" xlink:href="#X"/><use transform="matrix(0.0126953125,0,0,0.0126953125,56.9765625,0)" xlink:href="#Z"/><use transform="matrix(0.0126953125,0,0,0.0126953125,63.2734375,0)" xlink:href="#T"/><use transform="matrix(0.0126953125,0,0,0.0126953125,78.634765625,0)" xlink:href="#at"/></g><path d="M458 0L52-1490h194c108 439 233 855 324 1313 92-459 221-873 331-1313h216c110 438 234 854 330 1307 92-455 216-869 323-1307h196L1558 0h-221l-256-944c-26-95-50-200-73-331-22 122-44 223-73 331L680 0H458" id="au"/><g id="w"><use transform="matrix(0.010850694444444444,0,0,0.010850694444444444,0,0)" xlink:href="#N"/><use transform="matrix(0.010850694444444444,0,0,0.010850694444444444,16.23263888888889,0)" xlink:href="#an"/><use transform="matrix(0.010850694444444444,0,0,0.010850694444444444,21.614583333333336,0)" xlink:href="#R"/><use transform="matrix(0.010850694444444444,0,0,0.010850694444444444,34.939236111111114,0)" xlink:href="#S"/><use transform="matrix(0.010850694444444444,0,0,0.010850694444444444,48.07942708333333,0)" xlink:href="#Y"/><use transform="matrix(0.010850694444444444,0,0,0.010850694444444444,61.68619791666667,0)" xlink:href="#au"/><use transform="matrix(0.010850694444444444,0,0,0.010850694444444444,82.45442708333334,0)" xlink:href="#P"/><use transform="matrix(0.010850694444444444,0,0,0.010850694444444444,94.93272569444446,0)" xlink:href="#U"/><use transform="matrix(0.010850694444444444,0,0,0.010850694444444444,101.98567708333334,0)" xlink:href="#Q"/><use transform="matrix(0.010850694444444444,0,0,0.010850694444444444,114.68098958333334,0)" xlink:href="#ao"/></g><g id="x"><use transform="matrix(0.010850694444444444,0,0,0.010850694444444444,0,0)" xlink:href="#aq"/><use transform="matrix(0.010850694444444444,0,0,0.010850694444444444,12.565104166666666,0)" xlink:href="#R"/><use transform="matrix(0.010850694444444444,0,0,0.010850694444444444,25.889756944444443,0)" xlink:href="#at"/></g><path d="M789 20c-398 0-667-293-667-764 0-473 273-766 655-766 315 0 558 198 612 487h-196c-61-191-204-311-415-311-262 0-471 207-471 590 0 380 208 588 482 588 249 0 420-165 425-427H828v-166h572v163c0 370-256 606-611 606" id="av"/><g id="y"><use transform="matrix(0.010850694444444444,0,0,0.010850694444444444,0,0)" xlink:href="#av"/><use transform="matrix(0.010850694444444444,0,0,0.010850694444444444,16.57986111111111,0)" xlink:href="#X"/><use transform="matrix(0.010850694444444444,0,0,0.010850694444444444,24.576822916666664,0)" xlink:href="#R"/><use transform="matrix(0.010850694444444444,0,0,0.010850694444444444,37.90147569444444,0)" xlink:href="#S"/><use transform="matrix(0.010850694444444444,0,0,0.010850694444444444,51.041666666666664,0)" xlink:href="#ad"/></g><linearGradient gradientUnits="userSpaceOnUse" id="z" x1="340" y1="-620" x2="460" y2="-740"><stop offset="0%" stop-color="#c8511b"/><stop offset="100%" stop-color="#f90"/></linearGradient><path d="M180 0v-1490h528c311 0 458 177 458 395 0 191-114 278-244 313v14c139 9 302 137 302 371 0 225-148 397-499 397H180zm190-168h350c232 0 321-102 321-231 0-149-120-277-311-277H370v508zm0-668h328c160 0 286-101 286-255 0-129-87-231-280-231H370v486" id="aw"/><g id="A"><use transform="matrix(0.0126953125,0,0,0.0126953125,0,0)" xlink:href="#aa"/><use transform="matrix(0.0126953125,0,0,0.0126953125,16.681640625,0)" xlink:href="#Q"/><use transform="matrix(0.0126953125,0,0,0.0126953125,31.02734375,0)" xlink:href="#ai"/><use transform="matrix(0.0126953125,0,0,0.0126953125,45.7666015625,0)" xlink:href="#an"/><use transform="matrix(0.0126953125,0,0,0.0126953125,52.0634765625,0)" xlink:href="#an"/><use transform="matrix(0.0126953125,0,0,0.0126953125,58.3603515625,0)" xlink:href="#P"/><use transform="matrix(0.0126953125,0,0,0.0126953125,72.9599609375,0)" xlink:href="#O"/><use transform="matrix(0.0126953125,0,0,0.0126953125,91.7236328125,0)" xlink:href="#aw"/></g><path d="M600 0v-610L52-1490h220l295 481c50 82 90 150 130 243 40-96 80-164 128-243l294-481h219L790-610V0H600" id="ax"/><path d="M52 0l541-1490h220L1361 0h-200l-149-416H398L254 0H52zm404-582h497c-103-290-145-390-251-756-108 377-145 460-246 756" id="ay"/><g id="B"><use transform="matrix(0.0126953125,0,0,0.0126953125,0,0)" xlink:href="#aw"/><use transform="matrix(0.0126953125,0,0,0.0126953125,17.01171875,0)" xlink:href="#ax"/><use transform="matrix(0.0126953125,0,0,0.0126953125,33.7822265625,0)" xlink:href="#as"/><use transform="matrix(0.0126953125,0,0,0.0126953125,52.7744140625,0)" xlink:href="#ay"/></g><g id="C"><use transform="matrix(0.0126953125,0,0,0.0126953125,0,0)" xlink:href="#aa"/><use transform="matrix(0.0126953125,0,0,0.0126953125,16.681640625,0)" xlink:href="#Q"/><use transform="matrix(0.0126953125,0,0,0.0126953125,31.02734375,0)" xlink:href="#ai"/><use transform="matrix(0.0126953125,0,0,0.0126953125,45.7666015625,0)" xlink:href="#an"/><use transform="matrix(0.0126953125,0,0,0.0126953125,52.0634765625,0)" xlink:href="#an"/><use transform="matrix(0.0126953125,0,0,0.0126953125,58.3603515625,0)" xlink:href="#P"/><use transform="matrix(0.0126953125,0,0,0.0126953125,72.9599609375,0)" xlink:href="#O"/><use transform="matrix(0.0126953125,0,0,0.0126953125,91.7236328125,0)" xlink:href="#aw"/></g><path d="M677 24c-213 0-288-135-325-197h-20V0H158v-1490h180v551h14c37-59 106-193 324-193 279 0 474 222 474 576 0 356-194 580-473 580zm-27-161c209 0 317-186 317-421 0-232-105-413-317-413-206 0-314 166-314 413 0 249 111 421 314 421" id="az"/><g id="D"><use transform="matrix(0.0126953125,0,0,0.0126953125,0,0)" xlink:href="#ab"/><use transform="matrix(0.0126953125,0,0,0.0126953125,13.7236328125,0)" xlink:href="#Q"/><use transform="matrix(0.0126953125,0,0,0.0126953125,28.0693359375,0)" xlink:href="#ai"/><use transform="matrix(0.0126953125,0,0,0.0126953125,42.80859375,0)" xlink:href="#an"/><use transform="matrix(0.0126953125,0,0,0.0126953125,49.10546875,0)" xlink:href="#an"/><use transform="matrix(0.0126953125,0,0,0.0126953125,55.40234375,0)" xlink:href="#P"/><use transform="matrix(0.0126953125,0,0,0.0126953125,70.001953125,0)" xlink:href="#Y"/><use transform="matrix(0.0126953125,0,0,0.0126953125,85.921875,0)" xlink:href="#az"/><use transform="matrix(0.0126953125,0,0,0.0126953125,101.841796875,0)" xlink:href="#ak"/><use transform="matrix(0.0126953125,0,0,0.0126953125,113.80078125,0)" xlink:href="#U"/><use transform="matrix(0.0126953125,0,0,0.0126953125,122.052734375,0)" xlink:href="#R"/><use transform="matrix(0.0126953125,0,0,0.0126953125,137.642578125,0)" xlink:href="#ak"/><use transform="matrix(0.0126953125,0,0,0.0126953125,149.6015625,0)" xlink:href="#al"/><use transform="matrix(0.0126953125,0,0,0.0126953125,163.87109375,0)" xlink:href="#P"/><use transform="matrix(0.0126953125,0,0,0.0126953125,178.470703125,0)" xlink:href="#am"/><use transform="matrix(0.0126953125,0,0,0.0126953125,188.09375,0)" xlink:href="#al"/><use transform="matrix(0.0126953125,0,0,0.0126953125,202.36328125,0)" xlink:href="#P"/></g><g id="E"><use transform="matrix(0.010850694444444444,0,0,0.010850694444444444,0,0)" xlink:href="#N"/><use transform="matrix(0.010850694444444444,0,0,0.010850694444444444,16.23263888888889,0)" xlink:href="#an"/><use transform="matrix(0.010850694444444444,0,0,0.010850694444444444,21.614583333333336,0)" xlink:href="#R"/><use transform="matrix(0.010850694444444444,0,0,0.010850694444444444,34.939236111111114,0)" xlink:href="#S"/><use transform="matrix(0.010850694444444444,0,0,0.010850694444444444,48.07942708333333,0)" xlink:href="#Y"/><use transform="matrix(0.010850694444444444,0,0,0.010850694444444444,61.68619791666667,0)" xlink:href="#au"/><use transform="matrix(0.010850694444444444,0,0,0.010850694444444444,82.45442708333334,0)" xlink:href="#P"/><use transform="matrix(0.010850694444444444,0,0,0.010850694444444444,94.93272569444446,0)" xlink:href="#U"/><use transform="matrix(0.010850694444444444,0,0,0.010850694444444444,101.98567708333334,0)" xlink:href="#Q"/><use transform="matrix(0.010850694444444444,0,0,0.010850694444444444,114.68098958333334,0)" xlink:href="#ao"/></g><g id="F"><use transform="matrix(0.010850694444444444,0,0,0.010850694444444444,0,0)" xlink:href="#aq"/><use transform="matrix(0.010850694444444444,0,0,0.010850694444444444,12.565104166666666,0)" xlink:href="#R"/><use transform="matrix(0.010850694444444444,0,0,0.010850694444444444,25.889756944444443,0)" xlink:href="#at"/></g><path d="M180 0v-1490h190v644h782v-644h190V0h-190v-678H370V0H180" id="aA"/><g id="G"><use transform="matrix(0.0126953125,0,0,0.0126953125,0,0)" xlink:href="#N"/><use transform="matrix(0.0126953125,0,0,0.0126953125,18.9921875,0)" xlink:href="#an"/><use transform="matrix(0.0126953125,0,0,0.0126953125,25.2890625,0)" xlink:href="#Z"/><use transform="matrix(0.0126953125,0,0,0.0126953125,31.5859375,0)" xlink:href="#Q"/><use transform="matrix(0.0126953125,0,0,0.0126953125,46.439453125,0)" xlink:href="#al"/><use transform="matrix(0.0126953125,0,0,0.0126953125,60.708984375,0)" xlink:href="#aA"/><use transform="matrix(0.0126953125,0,0,0.0126953125,80.03125,0)" xlink:href="#R"/><use transform="matrix(0.0126953125,0,0,0.0126953125,95.62109375,0)" xlink:href="#S"/><use transform="matrix(0.0126953125,0,0,0.0126953125,110.9951171875,0)" xlink:href="#ab"/><use transform="matrix(0.0126953125,0,0,0.0126953125,124.71875,0)" xlink:href="#ag"/></g><g id="H"><use transform="matrix(0.0126953125,0,0,0.0126953125,0,0)" xlink:href="#N"/><use transform="matrix(0.0126953125,0,0,0.0126953125,18.9921875,0)" xlink:href="#an"/><use transform="matrix(0.0126953125,0,0,0.0126953125,25.2890625,0)" xlink:href="#R"/><use transform="matrix(0.0126953125,0,0,0.0126953125,40.87890625,0)" xlink:href="#S"/><use transform="matrix(0.0126953125,0,0,0.0126953125,56.2529296875,0)" xlink:href="#Y"/></g><linearGradient gradientUnits="userSpaceOnUse" id="I" x1="-185" y1="561" x2="-65" y2="441"><stop offset="0%" stop-color="#c8511b"/><stop offset="100%" stop-color="#f90"/></linearGradient><path d="M545 20c-263 0-445-160-445-446v-80h190v80c0 182 102 279 255 279 152 0 254-97 254-279v-1064h190v1064c0 286-181 446-444 446" id="aB"/><g id="J"><use transform="matrix(0.013020833333333334,0,0,0.013020833333333334,0,0)" xlink:href="#aB"/><use transform="matrix(0.013020833333333334,0,0,0.013020833333333334,15.221354166666668,0)" xlink:href="#S"/><use transform="matrix(0.013020833333333334,0,0,0.013020833333333334,30.989583333333336,0)" xlink:href="#ah"/><use transform="matrix(0.013020833333333334,0,0,0.013020833333333334,54.348958333333336,0)" xlink:href="#ad"/><use transform="matrix(0.013020833333333334,0,0,0.013020833333333334,70.67708333333334,0)" xlink:href="#ao"/><use transform="matrix(0.013020833333333334,0,0,0.013020833333333334,86.44531250000001,0)" xlink:href="#R"/><use transform="matrix(0.013020833333333334,0,0,0.013020833333333334,102.43489583333334,0)" xlink:href="#ab"/><use transform="matrix(0.013020833333333334,0,0,0.013020833333333334,116.51041666666667,0)" xlink:href="#U"/></g><path d="M154 0v-137l495-537c165-179 249-281 249-418 0-156-121-253-280-253-170 0-278 110-278 278H158c0-264 200-443 465-443 266 0 455 183 455 416 0 161-73 288-336 568L416-179v12h687V0H154" id="aC"/><g id="K"><use transform="matrix(0.013020833333333334,0,0,0.013020833333333334,0,0)" xlink:href="#ac"/><use transform="matrix(0.013020833333333334,0,0,0.013020833333333334,16.028645833333336,0)" xlink:href="#N"/><use transform="matrix(0.013020833333333334,0,0,0.013020833333333334,35.5078125,0)" xlink:href="#aC"/></g><path d="M763 24c-353 0-583-224-583-531v-983h190v968c0 214 149 370 393 370 243 0 391-156 391-370v-968h190v983c0 307-230 531-581 531" id="aD"/><g id="L"><use transform="matrix(0.01193576388888889,0,0,0.01193576388888889,0,0)" xlink:href="#aD"/><use transform="matrix(0.01193576388888889,0,0,0.01193576388888889,18.190104166666668,0)" xlink:href="#ab"/><use transform="matrix(0.01193576388888889,0,0,0.01193576388888889,31.092664930555557,0)" xlink:href="#ag"/><use transform="matrix(0.01193576388888889,0,0,0.01193576388888889,45.34396701388889,0)" xlink:href="#X"/><use transform="matrix(0.01193576388888889,0,0,0.01193576388888889,54.54644097222223,0)" xlink:href="#ab"/></g><g id="M"><use transform="matrix(0.0126953125,0,0,0.0126953125,0,0)" xlink:href="#aa"/><use transform="matrix(0.0126953125,0,0,0.0126953125,16.681640625,0)" xlink:href="#ag"/><use transform="matrix(0.0126953125,0,0,0.0126953125,31.83984375,0)" xlink:href="#Q"/><use transform="matrix(0.0126953125,0,0,0.0126953125,46.693359375,0)" xlink:href="#X"/><use transform="matrix(0.0126953125,0,0,0.0126953125,56.0498046875,0)" xlink:href="#ag"/><use transform="matrix(0.0126953125,0,0,0.0126953125,71.2080078125,0)" xlink:href="#U"/></g></defs></g></svg>